<svg width="170" height="53" viewBox="0 0 170 53" fill="none" xmlns="http://www.w3.org/2000/svg">
<path d="M117.68 24.1345C116.658 24.1345 115.902 23.4012 115.902 22.4678C115.902 21.5344 116.658 20.801 117.68 20.801C118.702 20.801 119.458 21.4899 119.458 22.4011C119.458 23.3789 118.725 24.1345 117.68 24.1345ZM116.28 37.9575L116.28 26.0902L119.058 26.0902L119.058 37.9575L116.28 37.9575Z" fill="white"/>
<path d="M107.319 25.9565C110.742 25.9565 112.72 27.5789 112.72 31.0013L112.72 37.9572L110.097 37.9572L110.097 36.5127C109.431 37.5349 108.142 38.1127 106.364 38.1127C103.653 38.1127 101.941 36.6238 101.941 34.557C101.941 32.5791 103.275 31.0235 106.875 31.0235L109.942 31.0235L109.942 30.8457C109.942 29.2234 108.964 28.2678 106.986 28.2678C105.653 28.2678 104.275 28.7122 103.386 29.4456L102.297 27.4233C103.564 26.4455 105.408 25.9565 107.319 25.9565ZM106.942 36.0904C108.297 36.0904 109.475 35.4682 109.942 34.2459L109.942 32.868L107.075 32.868C105.186 32.868 104.675 33.5792 104.675 34.4459C104.675 35.4459 105.519 36.0904 106.942 36.0904Z" fill="white"/>
<path d="M90.229 21.468L93.0069 21.468L93.0069 37.9578L90.3401 37.9578L90.3401 36.4244C89.4067 37.5578 88.0289 38.1133 86.4066 38.1133C82.9619 38.1133 80.4062 35.7132 80.4062 32.0241C80.4062 28.3351 82.9619 25.9571 86.4066 25.9571C87.94 25.9571 89.2956 26.4683 90.229 27.5572L90.229 21.468ZM86.7399 35.7354C88.74 35.7354 90.2734 34.2909 90.2734 32.0241C90.2734 29.7573 88.74 28.3128 86.7399 28.3128C84.7398 28.3128 83.2064 29.7573 83.2064 32.0241C83.2064 34.2909 84.7398 35.7354 86.7399 35.7354Z" fill="white"/>
<path d="M74.9141 27.8233C75.7142 26.5788 77.1587 25.9565 79.1366 25.9565L79.1366 28.6011C78.8921 28.5567 78.6921 28.5345 78.4921 28.5345C76.3809 28.5345 75.0475 29.779 75.0475 32.2013L75.0475 37.9572L72.2695 37.9572L72.2695 26.0899L74.9141 26.0899L74.9141 27.8233Z" fill="white"/>
<path d="M67.2466 24.1345C66.2243 24.1345 65.4687 23.4012 65.4687 22.4678C65.4687 21.5344 66.2243 20.801 67.2466 20.801C68.2689 20.801 69.0245 21.4899 69.0245 22.4011C69.0245 23.3789 68.2911 24.1345 67.2466 24.1345ZM65.8465 37.9575L65.8465 26.0902L68.6245 26.0902L68.6245 37.9575L65.8465 37.9575Z" fill="white"/>
<path d="M57.1914 25.9571C60.6583 25.9571 63.214 28.3351 63.214 32.0241C63.214 35.7132 60.6583 38.1133 57.1914 38.1133C55.5691 38.1133 54.1913 37.5578 53.2579 36.4244L53.2579 37.9578L50.6133 37.9578L50.6133 21.468L53.3912 21.468L53.3912 27.535C54.3468 26.4683 55.6802 25.9571 57.1914 25.9571ZM56.8803 35.7354C58.8804 35.7354 60.3916 34.2909 60.3916 32.0241C60.3916 29.7573 58.8804 28.3128 56.8803 28.3128C54.8802 28.3128 53.3468 29.7573 53.3468 32.0241C53.3468 34.2909 54.8802 35.7354 56.8803 35.7354Z" fill="white"/>
<path d="M47.9465 32.0902C47.9465 32.3124 47.9243 32.6458 47.902 32.9125L38.5904 32.9125C38.9238 34.6459 40.3683 35.7571 42.4351 35.7571C43.7685 35.7571 44.813 35.3348 45.6575 34.4681L47.1464 36.1793C46.0797 37.446 44.413 38.1127 42.3684 38.1127C38.3904 38.1127 35.8125 35.5571 35.8125 32.0235C35.8125 28.49 38.4126 25.9565 41.9462 25.9565C45.413 25.9565 47.9465 28.3789 47.9465 32.0902ZM41.9462 28.1789C40.1461 28.1789 38.8349 29.3345 38.5682 31.0679L45.3019 31.0679C45.0797 29.3567 43.7685 28.1789 41.9462 28.1789Z" fill="white"/>
<path d="M30.3708 26.0895L33.1487 26.0895L33.1487 37.9568L30.5041 37.9568L30.5041 36.4456C29.6152 37.5345 28.2151 38.1123 26.6817 38.1123C23.6371 38.1123 21.5703 36.4456 21.5703 32.8676L21.5703 26.0895L24.3482 26.0895L24.3482 32.4898C24.3482 34.6455 25.3705 35.6678 27.1262 35.6678C29.0596 35.6678 30.3708 34.4677 30.3708 32.0898L30.3708 26.0895Z" fill="white"/>
<path d="M15.2344 37.9578L15.2344 21.468L18.0123 21.468L18.0123 37.9578L15.2344 37.9578Z" fill="white"/>
<path d="M6.57813 25.9571C10.045 25.9571 12.6007 28.3351 12.6007 32.0241C12.6007 35.7132 10.045 38.1133 6.57813 38.1133C4.95582 38.1133 3.57797 37.5578 2.64459 36.4244L2.64459 37.9578L-9.1528e-09 37.9578L0 21.468L2.77793 21.468L2.77793 27.535C3.73353 26.4683 5.06694 25.9571 6.57813 25.9571ZM6.267 35.7354C8.26711 35.7354 9.7783 34.2909 9.7783 32.0241C9.7783 29.7573 8.26711 28.3128 6.267 28.3128C4.26689 28.3128 2.73348 29.7573 2.73348 32.0241C2.73348 34.2909 4.26689 35.7354 6.267 35.7354Z" fill="white"/>
<path d="M116.683 48.7686C116.329 48.7686 116.015 48.678 115.742 48.4966C115.474 48.3153 115.267 48.0579 115.12 47.7245C114.972 47.3852 114.898 46.9933 114.898 46.5487C114.898 46.0924 114.972 45.7005 115.12 45.3729C115.267 45.0395 115.474 44.7821 115.742 44.6008C116.009 44.4194 116.323 44.3288 116.683 44.3288C117.038 44.3288 117.344 44.4223 117.6 44.6095C117.857 44.7967 118.032 45.0512 118.125 45.3729L118.059 45.3729L118.059 42.5037L118.739 42.5037L118.739 48.6897L118.084 48.6897L118.084 47.6894L118.141 47.6894C118.048 48.0228 117.871 48.286 117.609 48.4791C117.352 48.6721 117.044 48.7686 116.683 48.7686ZM116.831 48.1807C117.207 48.1807 117.508 48.0374 117.732 47.7508C117.955 47.4642 118.067 47.0635 118.067 46.5487C118.067 46.0222 117.955 45.6186 117.732 45.3378C117.508 45.057 117.207 44.9166 116.831 44.9166C116.449 44.9166 116.146 45.057 115.922 45.3378C115.698 45.6186 115.586 46.0222 115.586 46.5487C115.586 47.0635 115.698 47.4642 115.922 47.7508C116.146 48.0374 116.449 48.1807 116.831 48.1807Z" fill="#999696"/>
<path d="M113.935 48.7686C113.531 48.7686 113.226 48.6429 113.018 48.3913C112.811 48.1339 112.707 47.7713 112.707 47.3033L112.707 42.5037L113.387 42.5037L113.387 47.2419C113.387 47.4349 113.411 47.6016 113.46 47.742C113.515 47.8766 113.591 47.9789 113.69 48.0491C113.793 48.1193 113.919 48.1544 114.066 48.1544C114.137 48.1544 114.203 48.1515 114.263 48.1456C114.328 48.1339 114.394 48.1193 114.459 48.1018L114.443 48.6984C114.361 48.7218 114.276 48.7394 114.189 48.7511C114.107 48.7628 114.023 48.7686 113.935 48.7686Z" fill="#999696"/>
<path d="M109.648 48.6897L109.648 44.4078L110.295 44.4078L110.295 45.4168L110.238 45.4168C110.336 45.0717 110.5 44.8114 110.729 44.6359C110.964 44.4546 111.267 44.3493 111.638 44.32L111.908 44.3025L111.966 44.943L111.499 44.9869C111.128 45.0278 110.841 45.1595 110.639 45.3818C110.437 45.604 110.336 45.8994 110.336 46.268L110.336 48.6897L109.648 48.6897Z" fill="#999696"/>
<path d="M106.678 48.7687C106.285 48.7687 105.944 48.6781 105.655 48.4967C105.366 48.3095 105.142 48.0522 104.984 47.7246C104.825 47.3911 104.746 46.9992 104.746 46.5488C104.746 46.0925 104.825 45.7006 104.984 45.373C105.142 45.0396 105.366 44.7822 105.655 44.6009C105.944 44.4195 106.283 44.3289 106.67 44.3289C107.063 44.3289 107.404 44.4195 107.694 44.6009C107.983 44.7822 108.207 45.0396 108.365 45.373C108.524 45.7064 108.603 46.0984 108.603 46.5488C108.603 46.9992 108.524 47.3911 108.365 47.7246C108.207 48.0522 107.983 48.3095 107.694 48.4967C107.404 48.6781 107.066 48.7687 106.678 48.7687ZM106.67 48.1721C107.052 48.1721 107.355 48.0317 107.579 47.7509C107.803 47.4643 107.915 47.0606 107.915 46.54C107.915 46.0253 107.803 45.6275 107.579 45.3467C107.355 45.0659 107.052 44.9255 106.67 44.9255C106.294 44.9255 105.993 45.0659 105.77 45.3467C105.546 45.6275 105.434 46.0253 105.434 46.54C105.434 47.0606 105.546 47.4643 105.77 47.7509C105.993 48.0317 106.294 48.1721 106.67 48.1721Z" fill="#999696"/>
<path d="M98.0514 48.6897L96.0781 42.5037L96.7987 42.5037L98.5018 47.9965L98.2725 47.9965L100.049 42.5037L100.606 42.5037L102.358 47.9965L102.154 47.9965L103.873 42.5037L104.561 42.5037L102.579 48.6897L101.957 48.6897L100.246 43.3987L100.385 43.3987L98.6656 48.6897L98.0514 48.6897Z" fill="#999696"/>
<path d="M93.0407 48.7686C92.6368 48.7686 92.3311 48.6429 92.1236 48.3913C91.9162 48.1339 91.8125 47.7713 91.8125 47.3033L91.8125 42.5037L92.4921 42.5037L92.4921 47.2419C92.4921 47.4349 92.5167 47.6016 92.5658 47.742C92.6204 47.8766 92.6968 47.9789 92.7951 48.0491C92.8988 48.1193 93.0243 48.1544 93.1717 48.1544C93.2427 48.1544 93.3082 48.1515 93.3682 48.1456C93.4337 48.1339 93.4992 48.1193 93.5647 48.1018L93.5484 48.6984C93.4665 48.7218 93.3819 48.7394 93.2945 48.7511C93.2127 48.7628 93.128 48.7686 93.0407 48.7686Z" fill="#999696"/>
<path d="M88.6094 48.7687C88.331 48.7687 88.0827 48.7132 87.8643 48.602C87.646 48.485 87.474 48.3271 87.3485 48.1282C87.2229 47.9293 87.1602 47.707 87.1602 47.4613C87.1602 47.1455 87.2366 46.8969 87.3894 46.7155C87.5477 46.5283 87.8016 46.3967 88.1509 46.3207C88.5057 46.2388 88.9779 46.1978 89.5674 46.1978L89.9932 46.1978L89.9932 46.6804L89.5838 46.6804C89.2563 46.6804 88.9806 46.6921 88.7568 46.7155C88.533 46.7389 88.3529 46.7799 88.2164 46.8384C88.0854 46.891 87.9899 46.967 87.9298 47.0665C87.8698 47.1601 87.8398 47.2771 87.8398 47.4175C87.8398 47.6573 87.9189 47.8503 88.0772 47.9966C88.241 48.1428 88.4566 48.2159 88.7241 48.2159C88.9479 48.2159 89.1444 48.1604 89.3136 48.0492C89.4883 47.9322 89.6248 47.7772 89.723 47.5842C89.8267 47.3911 89.8786 47.1747 89.8786 46.9349L89.8786 45.9258C89.8786 45.569 89.8049 45.3116 89.6575 45.1537C89.5101 44.9899 89.2754 44.908 88.9533 44.908C88.7132 44.908 88.4784 44.946 88.2492 45.022C88.0254 45.0981 87.7934 45.2151 87.5532 45.373L87.3239 44.8466C87.4713 44.7354 87.6351 44.6418 87.8152 44.5658C88.0008 44.4897 88.1919 44.4312 88.3884 44.3903C88.5903 44.3493 88.7868 44.3289 88.9779 44.3289C89.3218 44.3289 89.6084 44.3874 89.8376 44.5043C90.0724 44.6213 90.2471 44.8027 90.3617 45.0484C90.4818 45.294 90.5418 45.6099 90.5418 45.996L90.5418 48.6898L89.9113 48.6898L89.9113 47.707L89.9687 47.707C89.9141 47.9176 89.824 48.1048 89.6985 48.2686C89.5729 48.4265 89.4173 48.5494 89.2317 48.6371C89.0516 48.7249 88.8442 48.7687 88.6094 48.7687Z" fill="#999696"/>
<path d="M85.2073 48.7687C84.8034 48.7687 84.454 48.6751 84.1593 48.488C83.8699 48.3008 83.6434 48.0405 83.4796 47.707C83.3213 47.3677 83.2422 46.9729 83.2422 46.5225C83.2422 46.0721 83.3213 45.6831 83.4796 45.3555C83.6434 45.0279 83.8699 44.7764 84.1593 44.6009C84.454 44.4195 84.8034 44.3289 85.2073 44.3289C85.4639 44.3289 85.7122 44.3786 85.9524 44.478C86.1981 44.5716 86.4 44.7032 86.5583 44.8729L86.3209 45.3993C86.1626 45.2414 85.9879 45.1244 85.7969 45.0484C85.6113 44.9723 85.4284 44.9343 85.2483 44.9343C84.8334 44.9343 84.5113 45.0718 84.2821 45.3467C84.0528 45.6216 83.9382 46.0165 83.9382 46.5312C83.9382 47.0402 84.0528 47.4409 84.2821 47.7334C84.5113 48.02 84.8334 48.1633 85.2483 48.1633C85.4229 48.1633 85.6058 48.1253 85.7969 48.0492C85.9879 47.9732 86.1599 47.8562 86.3127 47.6983L86.5502 48.2247C86.3919 48.3944 86.1899 48.5289 85.9442 48.6283C85.6986 48.7219 85.453 48.7687 85.2073 48.7687Z" fill="#999696"/>
<path d="M81.4258 43.3458L81.4258 42.5386L82.261 42.5386L82.261 43.3458L81.4258 43.3458ZM81.5077 48.6895L81.5077 44.4075L82.1873 44.4075L82.1873 48.6895L81.5077 48.6895Z" fill="#999696"/>
<path d="M78.8314 48.7687C78.624 48.7687 78.4193 48.7453 78.2173 48.6985C78.0208 48.6576 77.8379 48.5991 77.6687 48.5231C77.4995 48.4412 77.3521 48.3446 77.2266 48.2335L77.4395 47.7158C77.5759 47.8269 77.7206 47.9205 77.8734 47.9966C78.0317 48.0668 78.1928 48.1194 78.3565 48.1545C78.5203 48.1896 78.684 48.2072 78.8478 48.2072C79.1644 48.2072 79.4046 48.1487 79.5683 48.0317C79.7376 47.9088 79.8222 47.7451 79.8222 47.5403C79.8222 47.3707 79.7676 47.2391 79.6584 47.1455C79.5547 47.0519 79.3882 46.9787 79.1589 46.9261L78.3893 46.7594C78.0399 46.6775 77.7779 46.5429 77.6032 46.3558C77.4285 46.1627 77.3412 45.9141 77.3412 45.6099C77.3412 45.3525 77.4067 45.1273 77.5377 44.9343C77.6687 44.7413 77.8543 44.5921 78.0945 44.4868C78.3347 44.3815 78.6131 44.3289 78.9297 44.3289C79.1153 44.3289 79.2981 44.3493 79.4783 44.3903C79.6584 44.4312 79.8249 44.4926 79.9778 44.5745C80.1361 44.6506 80.2671 44.7471 80.3708 44.8641L80.1497 45.373C80.0405 45.2677 79.9177 45.18 79.7812 45.1098C79.6502 45.0396 79.511 44.9869 79.3636 44.9518C79.2217 44.9109 79.0771 44.8904 78.9297 44.8904C78.624 44.8904 78.3893 44.9548 78.2255 45.0835C78.0617 45.2063 77.9799 45.373 77.9799 45.5836C77.9799 45.7474 78.029 45.879 78.1273 45.9785C78.2255 46.0779 78.3811 46.151 78.594 46.1978L79.3555 46.3733C79.7266 46.4552 80.0023 46.5868 80.1824 46.7682C80.368 46.9495 80.4608 47.1923 80.4608 47.4964C80.4608 47.7597 80.3926 47.9878 80.2561 48.1809C80.1251 48.368 79.9368 48.5143 79.6912 48.6196C79.451 48.719 79.1644 48.7687 78.8314 48.7687Z" fill="#999696"/>
<path d="M73.722 50.2688L74.4753 48.4525L74.4753 48.821L72.7148 44.4075L73.4436 44.4075L74.8437 48.1103L74.6718 48.1103L76.0801 44.4075L76.7925 44.4075L74.4425 50.2688L73.722 50.2688Z" fill="#999696"/>
<path d="M68.5312 48.6897L68.5312 42.5037L69.2027 42.5037L69.2027 45.3466L69.1208 45.3466C69.2409 45.0132 69.4292 44.7616 69.6858 44.592C69.9478 44.4165 70.2453 44.3288 70.5783 44.3288C70.9058 44.3288 71.1733 44.3902 71.3807 44.513C71.5936 44.6359 71.7519 44.823 71.8556 45.0746C71.9648 45.3261 72.0194 45.642 72.0194 46.0222L72.0194 48.6897L71.3397 48.6897L71.3397 46.0661C71.3397 45.8146 71.307 45.604 71.2415 45.4343C71.1814 45.2647 71.0832 45.1389 70.9467 45.057C70.8157 44.9751 70.641 44.9342 70.4227 44.9342C70.1825 44.9342 69.9696 44.9898 69.784 45.1009C69.6039 45.212 69.462 45.3671 69.3582 45.566C69.26 45.7648 69.2109 45.9959 69.2109 46.2591L69.2109 48.6897L68.5312 48.6897Z" fill="#999696"/>
<path d="M63.332 48.6897L63.332 42.5037L65.6411 42.5037C66.0559 42.5037 66.4053 42.5768 66.6891 42.723C66.9784 42.8693 67.1968 43.0799 67.3442 43.3548C67.497 43.6297 67.5734 43.9661 67.5734 44.3639C67.5734 44.7499 67.497 45.0834 67.3442 45.3641C67.1968 45.6449 66.9784 45.8584 66.6891 46.0047C66.4053 46.1509 66.0559 46.224 65.6411 46.224L64.0198 46.224L64.0198 48.6897L63.332 48.6897ZM64.0198 45.6098L65.551 45.6098C65.9931 45.6098 66.3261 45.5045 66.5499 45.2939C66.7737 45.0834 66.8856 44.7733 66.8856 44.3639C66.8856 43.9544 66.7737 43.6443 66.5499 43.4338C66.3261 43.2232 65.9931 43.1179 65.551 43.1179L64.0198 43.1179L64.0198 45.6098Z" fill="#999696"/>
<path d="M58.4587 48.7687C58.0329 48.7687 57.6644 48.681 57.3533 48.5055C57.0421 48.3242 56.802 48.0697 56.6327 47.7421C56.4635 47.4087 56.3789 47.0138 56.3789 46.5576C56.3789 46.113 56.4608 45.724 56.6245 45.3906C56.7883 45.0571 57.0148 44.7968 57.3042 44.6096C57.5989 44.4225 57.9374 44.3289 58.3195 44.3289C58.6907 44.3289 59.0045 44.4166 59.2611 44.5921C59.5231 44.7617 59.7251 45.0045 59.867 45.3204C60.0089 45.6304 60.0799 46.0077 60.0799 46.4523L60.0799 46.7155L56.8948 46.7155L56.8948 46.2329L59.6296 46.2329L59.4904 46.3558C59.4904 45.8878 59.3921 45.5251 59.1956 45.2677C58.9991 45.0045 58.7125 44.8729 58.3358 44.8729C58.0629 44.8729 57.8282 44.9401 57.6317 45.0747C57.4406 45.2092 57.2932 45.3964 57.1895 45.6363C57.0858 45.8761 57.0339 46.1569 57.0339 46.4786L57.0339 46.54C57.0339 46.8969 57.0885 47.1981 57.1977 47.4438C57.3123 47.6836 57.4761 47.8679 57.689 47.9966C57.9019 48.1194 58.1584 48.1809 58.4587 48.1809C58.6934 48.1809 58.9227 48.1428 59.1465 48.0668C59.3703 47.9907 59.5804 47.862 59.7769 47.6807L60.0062 48.1984C59.8206 48.3797 59.5859 48.5201 59.302 48.6196C59.0236 48.719 58.7425 48.7687 58.4587 48.7687Z" fill="#999696"/>
<path d="M51.8555 48.6897L51.8555 42.5037L52.5269 42.5037L52.5269 45.3466L52.445 45.3466C52.5651 45.0132 52.7534 44.7616 53.01 44.592C53.272 44.4165 53.5695 44.3288 53.9025 44.3288C54.23 44.3288 54.4975 44.3902 54.7049 44.513C54.9178 44.6359 55.0761 44.823 55.1798 45.0746C55.289 45.3261 55.3436 45.642 55.3436 46.0222L55.3436 48.6897L54.664 48.6897L54.664 46.0661C54.664 45.8146 54.6312 45.604 54.5657 45.4343C54.5057 45.2647 54.4074 45.1389 54.2709 45.057C54.1399 44.9751 53.9653 44.9342 53.7469 44.9342C53.5067 44.9342 53.2938 44.9898 53.1082 45.1009C52.9281 45.212 52.7862 45.3671 52.6825 45.566C52.5842 45.7648 52.5351 45.9959 52.5351 46.2591L52.5351 48.6897L51.8555 48.6897Z" fill="#999696"/>
<path d="M50.4807 48.7682C50.0058 48.7682 49.6482 48.6336 49.408 48.3646C49.1733 48.0955 49.056 47.7094 49.056 47.2063L49.056 44.9776L48.2617 44.9776L48.2617 44.4073L49.056 44.4073L49.056 43.1086L49.7356 43.1086L49.7356 44.4073L51.0375 44.4073L51.0375 44.9776L49.7356 44.9776L49.7356 47.1361C49.7356 47.4696 49.8011 47.7211 49.9321 47.8907C50.0631 48.0604 50.276 48.1452 50.5707 48.1452C50.6635 48.1452 50.7563 48.1335 50.8491 48.1101C50.9419 48.0867 51.0265 48.0604 51.103 48.0311L51.2176 48.5927C51.1412 48.6395 51.032 48.6804 50.8901 48.7155C50.7482 48.7506 50.6117 48.7682 50.4807 48.7682Z" fill="#999696"/>
<path d="M43.6445 48.6897L43.6445 44.4078L44.2914 44.4078L44.2914 45.4168L44.2341 45.4168C44.3323 45.0717 44.4961 44.8114 44.7254 44.6359C44.9601 44.4546 45.263 44.3493 45.6342 44.32L45.9044 44.3025L45.9617 44.943L45.495 44.9869C45.1238 45.0278 44.8373 45.1595 44.6353 45.3818C44.4333 45.604 44.3323 45.8994 44.3323 46.268L44.3323 48.6897L43.6445 48.6897Z" fill="#999696"/>
<path d="M40.6628 48.7687C40.2698 48.7687 39.9287 48.6781 39.6393 48.4967C39.35 48.3095 39.1262 48.0522 38.9679 47.7246C38.8096 47.3911 38.7305 46.9992 38.7305 46.5488C38.7305 46.0925 38.8096 45.7006 38.9679 45.373C39.1262 45.0396 39.35 44.7822 39.6393 44.6009C39.9287 44.4195 40.2671 44.3289 40.6547 44.3289C41.0477 44.3289 41.3889 44.4195 41.6782 44.6009C41.9675 44.7822 42.1913 45.0396 42.3496 45.373C42.5079 45.7064 42.587 46.0984 42.587 46.5488C42.587 46.9992 42.5079 47.3911 42.3496 47.7246C42.1913 48.0522 41.9675 48.3095 41.6782 48.4967C41.3889 48.6781 41.0504 48.7687 40.6628 48.7687ZM40.6547 48.1721C41.0368 48.1721 41.3397 48.0317 41.5635 47.7509C41.7873 47.4643 41.8992 47.0606 41.8992 46.54C41.8992 46.0253 41.7873 45.6275 41.5635 45.3467C41.3397 45.0659 41.0368 44.9255 40.6547 44.9255C40.278 44.9255 39.9778 45.0659 39.754 45.3467C39.5302 45.6275 39.4183 46.0253 39.4183 46.54C39.4183 47.0606 39.5302 47.4643 39.754 47.7509C39.9778 48.0317 40.278 48.1721 40.6547 48.1721Z" fill="#999696"/>
<path d="M36.4739 48.6896L36.4739 44.978L35.6797 44.978L35.6797 44.4077L36.6541 44.4077L36.4739 44.5919L36.4739 44.276C36.4739 43.7086 36.6104 43.2787 36.8833 42.9862C37.1563 42.6937 37.5684 42.5299 38.1197 42.4948L38.4718 42.4685L38.5209 43.0476L38.1197 43.0739C37.9014 43.0856 37.7212 43.1354 37.5793 43.2231C37.4374 43.305 37.3309 43.4249 37.26 43.5829C37.189 43.7408 37.1535 43.9426 37.1535 44.1883L37.1535 44.5217L37.0553 44.4077L38.3326 44.4077L38.3326 44.978L37.1535 44.978L37.1535 48.6896L36.4739 48.6896Z" fill="#999696"/>
<path d="M32.0273 48.6897L32.0273 42.5037L32.7151 42.5037L32.7151 48.6897L32.0273 48.6897Z" fill="#999696"/>
<path d="M25.4141 48.6897L27.9605 42.5037L28.5583 42.5037L31.0966 48.6897L30.3842 48.6897L29.6718 46.926L30.0076 47.1278L26.4949 47.1278L26.8306 46.926L26.1264 48.6897L25.4141 48.6897ZM28.2471 43.3548L26.937 46.6715L26.7405 46.5048L29.7701 46.5048L29.5736 46.6715L28.2635 43.3548L28.2471 43.3548Z" fill="#999696"/>
<path d="M18.9648 48.6898L18.9648 44.4078L19.6199 44.4078L19.6199 45.3555L19.5544 45.3555C19.669 45.0162 19.8573 44.7617 20.1194 44.5921C20.3814 44.4166 20.6789 44.3289 21.0119 44.3289C21.3394 44.3289 21.6096 44.3903 21.8225 44.5131C22.0354 44.636 22.1937 44.8232 22.2974 45.0747C22.4011 45.3262 22.453 45.6421 22.453 46.0223L22.453 48.6898L21.7733 48.6898L21.7733 46.0662C21.7733 45.8147 21.7406 45.6041 21.6751 45.4344C21.615 45.2648 21.5168 45.139 21.3803 45.0571C21.2493 44.9752 21.0746 44.9343 20.8563 44.9343C20.6161 44.9343 20.4032 44.9899 20.2176 45.101C20.0375 45.2122 19.8956 45.3672 19.7918 45.5661C19.6936 45.7649 19.6445 45.996 19.6445 46.2592L19.6445 48.6898L18.9648 48.6898Z" fill="#999696"/>
<path d="M15.991 48.7687C15.5979 48.7687 15.2568 48.6781 14.9675 48.4967C14.6782 48.3095 14.4543 48.0522 14.296 47.7246C14.1377 47.3911 14.0586 46.9992 14.0586 46.5488C14.0586 46.0925 14.1377 45.7006 14.296 45.373C14.4543 45.0396 14.6782 44.7822 14.9675 44.6009C15.2568 44.4195 15.5952 44.3289 15.9828 44.3289C16.3758 44.3289 16.717 44.4195 17.0063 44.6009C17.2956 44.7822 17.5194 45.0396 17.6777 45.373C17.836 45.7064 17.9152 46.0984 17.9152 46.5488C17.9152 46.9992 17.836 47.3911 17.6777 47.7246C17.5194 48.0522 17.2956 48.3095 17.0063 48.4967C16.717 48.6781 16.3785 48.7687 15.991 48.7687ZM15.9828 48.1721C16.3649 48.1721 16.6679 48.0317 16.8917 47.7509C17.1155 47.4643 17.2274 47.0606 17.2274 46.54C17.2274 46.0253 17.1155 45.6275 16.8917 45.3467C16.6679 45.0659 16.3649 44.9255 15.9828 44.9255C15.6061 44.9255 15.3059 45.0659 15.0821 45.3467C14.8583 45.6275 14.7464 46.0253 14.7464 46.54C14.7464 47.0606 14.8583 47.4643 15.0821 47.7509C15.3059 48.0317 15.6061 48.1721 15.9828 48.1721Z" fill="#999696"/>
<path d="M12.2461 43.3458L12.2461 42.5386L13.0813 42.5386L13.0813 43.3458L12.2461 43.3458ZM12.328 48.6895L12.328 44.4075L13.0076 44.4075L13.0076 48.6895L12.328 48.6895Z" fill="#999696"/>
<path d="M9.65173 48.7687C9.4443 48.7687 9.2396 48.7453 9.03763 48.6985C8.84112 48.6576 8.65825 48.5991 8.48903 48.5231C8.31981 48.4412 8.17243 48.3446 8.04687 48.2335L8.25976 47.7158C8.39623 47.8269 8.54089 47.9205 8.69373 47.9966C8.85203 48.0668 9.01307 48.1194 9.17683 48.1545C9.34059 48.1896 9.50435 48.2072 9.66811 48.2072C9.98471 48.2072 10.2249 48.1487 10.3887 48.0317C10.5579 47.9088 10.6425 47.7451 10.6425 47.5403C10.6425 47.3707 10.5879 47.2391 10.4787 47.1455C10.375 47.0519 10.2085 46.9787 9.97925 46.9261L9.20958 46.7594C8.86022 46.6775 8.5982 46.5429 8.42353 46.3558C8.24885 46.1627 8.16151 45.9141 8.16151 45.6099C8.16151 45.3525 8.22701 45.1273 8.35802 44.9343C8.48903 44.7413 8.67463 44.5921 8.91481 44.4868C9.15499 44.3815 9.43338 44.3289 9.74999 44.3289C9.93559 44.3289 10.1185 44.3493 10.2986 44.3903C10.4787 44.4312 10.6452 44.4926 10.7981 44.5745C10.9564 44.6506 11.0874 44.7471 11.1911 44.8641L10.97 45.373C10.8608 45.2677 10.738 45.18 10.6015 45.1098C10.4705 45.0396 10.3313 44.9869 10.184 44.9518C10.042 44.9109 9.89737 44.8904 9.74999 44.8904C9.4443 44.8904 9.20958 44.9548 9.04582 45.0835C8.88206 45.2063 8.80018 45.373 8.80018 45.5836C8.80018 45.7474 8.8493 45.879 8.94756 45.9785C9.04582 46.0779 9.20139 46.151 9.41428 46.1978L10.1758 46.3733C10.547 46.4552 10.8226 46.5868 11.0028 46.7682C11.1884 46.9495 11.2812 47.1923 11.2812 47.4964C11.2812 47.7597 11.2129 47.9878 11.0765 48.1809C10.9454 48.368 10.7571 48.5143 10.5115 48.6196C10.2713 48.719 9.98471 48.7687 9.65173 48.7687Z" fill="#999696"/>
<path d="M6.21875 43.3458L6.21875 42.5386L7.05393 42.5386L7.05393 43.3458L6.21875 43.3458ZM6.30063 48.6895L6.30063 44.4075L6.98024 44.4075L6.98024 48.6895L6.30063 48.6895Z" fill="#999696"/>
<path d="M2.51373 48.6897L0 42.5037L0.736924 42.5037L2.9477 48.0228L2.72662 48.0228L4.92921 42.5037L5.64975 42.5037L3.13602 48.6897L2.51373 48.6897Z" fill="#999696"/>
<path d="M140.891 21.3122L142.376 23.7782L147.723 17.8351L140.891 21.3122Z" fill="#72C8F1"/>
<path d="M140.891 21.3125L141.986 15.0895L147.723 17.8354L140.891 21.3125Z" fill="#53A1CC"/>
<path d="M151.405 8.92175L141.992 15.0896L147.729 17.8355L151.405 8.92175Z" fill="#2F7CAC"/>
<path d="M152.242 7.65122L141.992 15.0892L155.63 -7.66743e-09L152.242 7.65122Z" fill="#016699"/>
<path d="M134.297 29.7136L145.277 21.5692L147.706 33.5392L134.297 29.7136Z" fill="#ACD9F4"/>
<path d="M134.297 29.7135L142.297 23.7799L138.556 19.5735L134.297 29.7135Z" fill="#016699"/>
<path d="M136.486 22.2341L134.436 21.4134L132.417 21.5695L131.676 20.7545L133.458 19.3377L135.1 18.7094L138.554 19.5739L137.441 22.2246L136.486 22.2341Z" fill="#72C8F1"/>
<path d="M136.486 22.2334L134.437 21.4127L132.418 21.5689L136.06 25.5125L137.442 22.2239L136.486 22.2334Z" fill="#46C8F5"/>
<path d="M134.297 29.7133L149.553 40.7826L146.433 33.1771L134.297 29.7133Z" fill="#2F7CAC"/>
<path d="M142.707 42.7828L144.317 36.9863L149.551 40.7834L142.707 42.7828Z" fill="#46C8F5"/>
<path d="M142.707 42.7825L145.275 47.0518L149.551 40.7831L142.707 42.7825Z" fill="#72C8F1"/>
<path d="M146.965 52.2049L145.047 48.9106L149.552 40.7833L146.965 52.2049Z" fill="#016699"/>
<path d="M154.411 29.1309L145.277 21.5692L147.707 33.5392L154.411 29.1309Z" fill="#46C8F5"/>
<path d="M154.411 29.1309L145.277 21.5692L158.14 22.7365L154.411 29.1309Z" fill="#53A1CC"/>
<path d="M169.031 15.0869L145.277 21.5689L160.41 22.3306L169.031 15.0869Z" fill="#2F7CAC"/>
<path d="M134.439 21.413L123.937 22.2528L131.678 20.7542L132.543 21.2416L134.439 21.413Z" fill="#9BD4F3"/>
<path d="M134.439 21.4127L123.937 22.2525L133.977 22.1459L134.439 21.4127Z" fill="#2F7CAC"/>
<path d="M134.226 20.1491L134.027 20.7546L134.408 21.1964L135.036 21.2212L135.293 20.9736L135.399 20.4366L134.866 19.951L134.226 20.1491Z" fill="#E9F4F7"/>
<path d="M145.277 21.5696L160.41 22.3313L158.14 22.7369L145.277 21.5696Z" fill="#1C3664"/>
<path d="M141.984 15.0892L152.234 7.65125L151.398 8.92137L141.984 15.0892Z" fill="#1C3664"/>
<path d="M149.552 40.7831L145.047 48.9104L145.276 47.0518L149.552 40.7831Z" fill="#1C3664"/>
</svg>
