<svg width="53" height="61" viewBox="0 0 53 61" fill="none" xmlns="http://www.w3.org/2000/svg">
<path d="M19.5625 24.59L21.2762 27.4353L27.4457 20.5781L19.5625 24.59Z" fill="#72C8F1"/>
<path d="M19.5625 24.5903L20.8265 17.4102L27.4457 20.5784L19.5625 24.5903Z" fill="#53A1CC"/>
<path d="M31.6891 10.2939L20.8281 17.4104L27.4473 20.5786L31.6891 10.2939Z" fill="#2F7CAC"/>
<path d="M32.654 8.82797L20.8281 17.4099L36.564 -8.84668e-09L32.654 8.82797Z" fill="#016699"/>
<path d="M11.9531 34.2837L24.6217 24.8867L27.4248 38.6977L11.9531 34.2837Z" fill="#ACD9F4"/>
<path d="M11.9531 34.2836L21.1833 27.4374L16.8673 22.584L11.9531 34.2836Z" fill="#016699"/>
<path d="M14.4792 25.6538L12.1148 24.7068L9.78547 24.887L8.92969 23.9466L10.9862 22.312L12.8811 21.5869L16.8653 22.5844L15.5816 25.6428L14.4792 25.6538Z" fill="#72C8F1"/>
<path d="M14.4788 25.653L12.1145 24.7061L9.78516 24.8862L13.9876 29.4364L15.5813 25.642L14.4788 25.653Z" fill="#46C8F5"/>
<path d="M11.9531 34.2832L29.5556 47.055L25.9556 38.2797L11.9531 34.2832Z" fill="#2F7CAC"/>
<path d="M21.6562 49.3628L23.5141 42.6748L29.5526 47.0558L21.6562 49.3628Z" fill="#46C8F5"/>
<path d="M21.6562 49.3626L24.6187 54.2885L29.5526 47.0557L21.6562 49.3626Z" fill="#72C8F1"/>
<path d="M26.5691 60.2339L24.3555 56.4329L29.5535 47.0557L26.5691 60.2339Z" fill="#016699"/>
<path d="M35.159 33.6114L24.6211 24.8867L27.4242 38.6977L35.159 33.6114Z" fill="#46C8F5"/>
<path d="M35.159 33.6114L24.6211 24.8867L39.4619 26.2335L35.159 33.6114Z" fill="#53A1CC"/>
<path d="M52.0279 17.4072L24.6211 24.8862L42.0816 25.765L52.0279 17.4072Z" fill="#2F7CAC"/>
<path d="M12.1163 24.7065L-1.43507e-09 25.6754L8.93111 23.9463L9.9288 24.5087L12.1163 24.7065Z" fill="#9BD4F3"/>
<path d="M12.1163 24.7061L-8.0415e-10 25.675L11.5836 25.5519L12.1163 24.7061Z" fill="#2F7CAC"/>
<path d="M11.8698 23.248L11.6406 23.9467L12.0794 24.4564L12.8042 24.485L13.1011 24.1994L13.2234 23.5798L12.6077 23.0195L11.8698 23.248Z" fill="#E9F4F7"/>
</svg>
