<svg width="19" height="13" viewBox="0 0 19 13" fill="none" xmlns="http://www.w3.org/2000/svg">
<path d="M3.9152 0.5625C3.12195 0.5625 2.38926 0.959125 1.9481 1.61997L0.296885 4.08819C0.102558 4.37922 -0.000784697 4.72149 1.01993e-05 5.07144V9.00503C-0.00108457 9.26861 0.0859824 9.52498 0.247363 9.73338C0.408745 9.94177 0.635173 10.0902 0.890635 10.1551L2.43082 10.5452C2.54159 11.0788 2.83252 11.5581 3.2548 11.9027C3.67708 12.2472 4.20501 12.4361 4.75001 12.4375C5.84964 12.4375 6.76757 11.6769 7.03239 10.6562H12.5614C12.8262 11.6769 13.7441 12.4375 14.8438 12.4375C15.9434 12.4375 16.8613 11.6769 17.1261 10.6562H17.8125C18.4621 10.6562 19 10.1183 19 9.46875V7.298C18.9994 6.76876 18.822 6.25489 18.496 5.83803C18.1699 5.42117 17.7139 5.12523 17.2004 4.99722L13.99 4.18081L11.6708 1.41631C11.4489 1.14935 11.171 0.93447 10.8568 0.786915C10.5426 0.63936 10.1998 0.562744 9.8527 0.5625H3.9152ZM3.9152 1.75H6.53126V4.125H1.70704L2.93195 2.28794V2.26953C3.03952 2.10796 3.18575 1.97581 3.35736 1.88508C3.52896 1.79435 3.7211 1.74792 3.9152 1.75ZM7.71876 1.75H9.8527C10.2048 1.75 10.5367 1.90556 10.7617 2.17691L12.3945 4.125H7.71876V1.75ZM1.18751 5.3125H13.582L16.9219 6.14731C17.1782 6.21091 17.4055 6.3591 17.5671 6.56791C17.7288 6.77673 17.8152 7.03396 17.8125 7.298V9.46875H17.1261C16.8613 8.44809 15.9434 7.6875 14.8438 7.6875C13.7441 7.6875 12.8262 8.44809 12.5614 9.46875H7.03239C6.76757 8.44809 5.84964 7.6875 4.75001 7.6875C3.69729 7.6875 2.8132 8.38338 2.50504 9.33872L1.18751 9.00562V5.3125ZM4.75001 8.875C5.41323 8.875 5.93751 9.39928 5.93751 10.0625C5.93751 10.7257 5.41323 11.25 4.75001 11.25C4.08679 11.25 3.56251 10.7257 3.56251 10.0625C3.56251 9.39928 4.08679 8.875 4.75001 8.875ZM14.8438 8.875C15.507 8.875 16.0313 9.39928 16.0313 10.0625C16.0313 10.7257 15.507 11.25 14.8438 11.25C14.1805 11.25 13.6563 10.7257 13.6563 10.0625C13.6563 9.39928 14.1805 8.875 14.8438 8.875Z" fill="#187BCD"/>
</svg>
