<svg width="24" height="24" viewBox="0 0 24 24" fill="none" xmlns="http://www.w3.org/2000/svg">
<path d="M13.5 15.443V19.318C13.5029 19.8314 13.7089 20.3228 14.073 20.6848C14.437 21.0468 14.9296 21.25 15.443 21.25H19.318C19.8304 21.25 20.3218 21.0465 20.6841 20.6841C21.0464 20.3218 21.25 19.8304 21.25 19.318V15.443C21.25 14.9297 21.0468 14.4372 20.6847 14.0733C20.3227 13.7094 19.8313 13.5036 19.318 13.501H15.443C14.9279 13.501 14.434 13.7056 14.0698 14.0698C13.7056 14.434 13.501 14.9279 13.501 15.443M2.75 15.443L2.75 19.318C2.75 19.5717 2.79997 19.8229 2.89706 20.0573C2.99416 20.2917 3.13647 20.5047 3.31587 20.6841C3.49527 20.8635 3.70825 21.0058 3.94266 21.1029C4.17706 21.2 4.42829 21.25 4.682 21.25H8.557C9.07032 21.25 9.56277 21.0468 9.92668 20.6847C10.2906 20.3227 10.4964 19.8313 10.499 19.318V15.443C10.499 14.9279 10.2944 14.434 9.9302 14.0698C9.56601 13.7056 9.07205 13.501 8.557 13.501H4.682C4.16868 13.5036 3.67729 13.7094 3.31526 14.0733C2.95322 14.4372 2.74999 14.9297 2.75 15.443ZM2.75 4.682L2.75 8.557C2.74999 9.07032 2.95322 9.56277 3.31526 9.92668C3.67729 10.2906 4.16868 10.4964 4.682 10.499H8.557C9.07197 10.4987 9.56577 10.294 9.92991 9.92991C10.294 9.56577 10.4987 9.07197 10.499 8.557V4.682C10.4964 4.16868 10.2906 3.67729 9.92668 3.31526C9.56277 2.95322 9.07032 2.74999 8.557 2.75H4.682C4.1696 2.75 3.67819 2.95355 3.31587 3.31587C2.95355 3.67819 2.75 4.1696 2.75 4.682ZM13.5 6.625C13.5 7.65271 13.9083 8.63834 14.635 9.36504C15.3617 10.0917 16.3473 10.5 17.375 10.5C18.4027 10.5 19.3883 10.0917 20.115 9.36504C20.8417 8.63834 21.25 7.65271 21.25 6.625C21.25 5.59729 20.8417 4.61167 20.115 3.88496C19.3883 3.15826 18.4027 2.75 17.375 2.75C16.3473 2.75 15.3617 3.15826 14.635 3.88496C13.9083 4.61167 13.5 5.59729 13.5 6.625Z" stroke="white" stroke-width="1.6" stroke-linecap="round" stroke-linejoin="round"/>
</svg>
