<svg width="21" height="20" viewBox="0 0 21 20" fill="none" xmlns="http://www.w3.org/2000/svg">
<g clip-path="url(#clip0_107_16102)">
<path d="M17.7581 3.33333H15.1393C14.9432 2.39284 14.4244 1.54779 13.6704 0.940598C12.9163 0.333408 11.9731 0.0012121 10.9998 0L9.31017 0C8.3368 0.0012121 7.39361 0.333408 6.63957 0.940598C5.88553 1.54779 5.36676 2.39284 5.17069 3.33333H2.55182C2.32777 3.33333 2.1129 3.42113 1.95447 3.57741C1.79604 3.73369 1.70703 3.94565 1.70703 4.16667C1.70703 4.38768 1.79604 4.59964 1.95447 4.75592C2.1129 4.9122 2.32777 5 2.55182 5H3.39662V15.8333C3.39796 16.938 3.84341 17.997 4.63527 18.7782C5.42713 19.5593 6.50073 19.9987 7.62059 20H12.6893C13.8092 19.9987 14.8828 19.5593 15.6747 18.7782C16.4665 17.997 16.912 16.938 16.9133 15.8333V5H17.7581C17.9822 5 18.197 4.9122 18.3555 4.75592C18.5139 4.59964 18.6029 4.38768 18.6029 4.16667C18.6029 3.94565 18.5139 3.73369 18.3555 3.57741C18.197 3.42113 17.9822 3.33333 17.7581 3.33333ZM9.31017 1.66667H10.9998C11.5238 1.6673 12.0347 1.82781 12.4626 2.1262C12.8905 2.42459 13.2143 2.84624 13.3897 3.33333H6.92025C7.09562 2.84624 7.41944 2.42459 7.84732 2.1262C8.27519 1.82781 8.78617 1.6673 9.31017 1.66667ZM15.2237 15.8333C15.2237 16.4964 14.9567 17.1323 14.4814 17.6011C14.0061 18.0699 13.3615 18.3333 12.6893 18.3333H7.62059C6.94843 18.3333 6.3038 18.0699 5.82851 17.6011C5.35322 17.1323 5.08621 16.4964 5.08621 15.8333V5H15.2237V15.8333Z" fill="#013A6F"/>
<path d="M8.46198 14.9997C8.68603 14.9997 8.90091 14.9119 9.05934 14.7556C9.21777 14.5993 9.30677 14.3873 9.30677 14.1663V9.16634C9.30677 8.94533 9.21777 8.73337 9.05934 8.57709C8.90091 8.42081 8.68603 8.33301 8.46198 8.33301C8.23793 8.33301 8.02305 8.42081 7.86462 8.57709C7.70619 8.73337 7.61719 8.94533 7.61719 9.16634V14.1663C7.61719 14.3873 7.70619 14.5993 7.86462 14.7556C8.02305 14.9119 8.23793 14.9997 8.46198 14.9997Z" fill="#013A6F"/>
<path d="M11.8409 14.9997C12.0649 14.9997 12.2798 14.9119 12.4383 14.7556C12.5967 14.5993 12.6857 14.3873 12.6857 14.1663V9.16634C12.6857 8.94533 12.5967 8.73337 12.4383 8.57709C12.2798 8.42081 12.0649 8.33301 11.8409 8.33301C11.6168 8.33301 11.402 8.42081 11.2435 8.57709C11.0851 8.73337 10.9961 8.94533 10.9961 9.16634V14.1663C10.9961 14.3873 11.0851 14.5993 11.2435 14.7556C11.402 14.9119 11.6168 14.9997 11.8409 14.9997Z" fill="#013A6F"/>
</g>
<defs>
<clipPath id="clip0_107_16102">
<rect width="20.275" height="20" fill="white" transform="translate(0.015625)"/>
</clipPath>
</defs>
</svg>
