<svg width="19" height="20" viewBox="0 0 19 20" fill="none" xmlns="http://www.w3.org/2000/svg" style="color:white;">
  <path d="M5.26423 17.216L1.55796 17.216C1.35196 17.216 1.1544 17.1336 1.00874 16.987C0.863081 16.8404 0.78125 16.6416 0.78125 16.4343C0.78125 16.2269 0.863081 16.0281 1.00874 15.8815C1.1544 15.7349 1.35196 15.6526 1.55796 15.6526L4.84845 15.6526L8.32373 10.4068C8.43875 10.2342 8.6172 10.1146 8.81983 10.0744C9.02246 10.0342 9.23266 10.0766 9.40419 10.1924C9.57573 10.3081 9.69455 10.4877 9.73451 10.6916C9.77447 10.8956 9.7323 11.1071 9.61728 11.2798L5.90986 16.8684C5.83896 16.9753 5.74295 17.063 5.63033 17.1236C5.5177 17.1842 5.39196 17.216 5.26423 17.216Z" fill="#ffffff"/>
  <path d="M1.61207 19.0269C1.40623 19.0269 1.20882 18.9446 1.06326 18.7981C0.917709 18.6516 0.835937 18.4529 0.835937 18.2458L0.835937 15.119C0.835937 14.9118 0.917709 14.7132 1.06326 14.5667C1.20882 14.4202 1.40623 14.3379 1.61207 14.3379C1.81792 14.3379 2.01533 14.4202 2.16088 14.5667C2.30643 14.7132 2.38821 14.9118 2.38821 15.119L2.38821 18.2458C2.38821 18.4529 2.30643 18.6516 2.16088 18.7981C2.01533 18.9446 1.81792 19.0269 1.61207 19.0269Z" fill="#ffffff"/>
  <path d="M3.40895 6.33008L14.5255 6.33008C14.6274 6.33008 14.7283 6.35028 14.8225 6.38954C14.9166 6.42879 15.0022 6.48633 15.0743 6.55886C15.1463 6.63139 15.2035 6.7175 15.2425 6.81227C15.2815 6.90704 15.3016 7.00861 15.3016 7.11119L15.3016 9.90784C15.3004 10.3614 15.1207 10.7961 14.8019 11.1168C14.4831 11.4374 14.0511 11.6179 13.6003 11.6188L4.33523 11.6188C3.8845 11.6182 3.45237 11.438 3.13333 11.1176C2.8143 10.7971 2.63434 10.3626 2.63281 9.909L2.63281 7.11119C2.63281 6.90402 2.71458 6.70535 2.86014 6.55886C3.00569 6.41237 3.2031 6.33008 3.40895 6.33008ZM13.7493 7.89346L4.18624 7.89346L4.18624 9.909C4.18624 9.92885 4.19012 9.94849 4.19766 9.96683C4.20521 9.98516 4.21627 10.0018 4.23021 10.0159C4.24415 10.0299 4.26071 10.041 4.27892 10.0486C4.29714 10.0562 4.31666 10.0601 4.33638 10.0601L13.6003 10.0601C13.62 10.0601 13.6396 10.0562 13.6578 10.0486C13.676 10.041 13.6926 10.0299 13.7065 10.0159C13.7204 10.0018 13.7315 9.98516 13.739 9.96683C13.7466 9.94849 13.7505 9.92885 13.7505 9.909L13.7493 7.89346Z" fill="#ffffff"/>
  <path d="M15.4563 3.53223L17.3043 3.53223C17.756 3.53223 18.1892 3.71266 18.5089 4.03391C18.8285 4.35515 19.0084 4.79094 19.009 5.24556L19.009 7.10534C19.009 7.55935 18.8302 7.99486 18.5117 8.31644C18.1933 8.63802 17.7612 8.81945 17.31 8.82099L14.53 8.82099C14.3242 8.82099 14.1268 8.7387 13.9812 8.59221C13.8357 8.44572 13.7539 8.24705 13.7539 8.03988L13.7539 7.10999C13.754 7.02581 13.7677 6.9422 13.7943 6.86241L14.7183 4.06575C14.77 3.91005 14.8691 3.7747 15.0016 3.67893C15.1341 3.58316 15.2932 3.53183 15.4563 3.53223ZM17.3043 7.26226C17.3441 7.26226 17.3823 7.24634 17.4104 7.218C17.4386 7.18966 17.4544 7.15123 17.4544 7.11115L17.4544 5.25137C17.4544 5.21129 17.4386 5.17286 17.4104 5.14452C17.3823 5.11618 17.3441 5.10026 17.3043 5.10026L16.0165 5.10026L15.3073 7.23785L15.3073 7.26226L17.3043 7.26226Z" fill="#ffffff"/>
  <path d="M14.5276 7.89301L2.48366 7.89301C2.03234 7.8924 1.59968 7.71169 1.28055 7.39051C0.961418 7.06933 0.781861 6.6339 0.78125 6.17969L0.78125 2.44965C0.781861 1.99544 0.961418 1.56001 1.28055 1.23883C1.59968 0.917652 2.03234 0.736944 2.48366 0.736328L16.3802 0.736328C16.5033 0.736209 16.6246 0.765557 16.7342 0.821949C16.8438 0.878342 16.9385 0.960162 17.0105 1.06065C17.0825 1.16115 17.1297 1.27743 17.1482 1.3999C17.1667 1.52238 17.156 1.64753 17.117 1.76502L15.2691 7.35949C15.2172 7.51575 15.1175 7.65151 14.9844 7.74733C14.8512 7.84316 14.6913 7.89415 14.5276 7.89301ZM2.48366 2.29971C2.44384 2.29971 2.40565 2.31563 2.37749 2.34397C2.34934 2.37231 2.33352 2.41074 2.33352 2.45082L2.33352 6.17969C2.33352 6.21976 2.34934 6.2582 2.37749 6.28653C2.40565 6.31487 2.44384 6.33079 2.48366 6.33079L13.9674 6.33079L15.3026 2.29971L2.48366 2.29971Z" fill="#ffffff"/>
</svg>
