<svg width="19" height="19" viewBox="0 0 19 19" fill="none" xmlns="http://www.w3.org/2000/svg">
<path d="M17.5456 1.82332C17.2813 1.56231 16.9675 1.35526 16.622 1.21398C16.2765 1.07271 15.9062 1 15.5322 1C15.1582 1 14.7879 1.07271 14.4425 1.21398C14.097 1.35526 13.7831 1.56231 13.5188 1.82332L2.81216 12.3855C2.49355 12.6997 2.26183 13.0897 2.14018 13.5183L1.01999 17.4647C0.994107 17.5562 0.993346 17.6529 1.01778 17.7447C1.04222 17.8366 1.09098 17.9204 1.15906 17.9876C1.22715 18.0547 1.31211 18.1028 1.40524 18.1269C1.49837 18.151 1.59632 18.1503 1.68906 18.1247L5.68904 17.0197C6.1238 16.9006 6.51976 16.6722 6.8382 16.3569L17.5456 5.79474C17.8101 5.53405 18.0199 5.2245 18.163 4.88378C18.3062 4.54306 18.3799 4.17785 18.3799 3.80903C18.3799 3.44021 18.3062 3.075 18.163 2.73428C18.0199 2.39356 17.8101 2.08401 17.5456 1.82332ZM14.2871 2.58046C14.6174 2.25472 15.0654 2.07175 15.5325 2.07182C15.9995 2.07189 16.4475 2.25498 16.7777 2.58082C17.1079 2.90665 17.2934 3.34855 17.2933 3.80928C17.2932 4.27002 17.1076 4.71186 16.7773 5.0376L15.6622 6.13689L13.172 3.67974L14.2871 2.58046ZM12.4044 4.4376L14.8954 6.89474L6.06992 15.5997C5.88353 15.7848 5.65141 15.9188 5.3965 15.9883L2.32556 16.8362L3.18507 13.8076C3.2565 13.5565 3.39214 13.3278 3.57899 13.1433L12.4044 4.4376Z" fill="#013A6F" stroke="#013A6F" stroke-width="0.5"/>
</svg>
