<svg width="18" height="18" viewBox="0 0 18 18" fill="none" xmlns="http://www.w3.org/2000/svg">
<path d="M14.625 9C13.5895 9 12.75 8.16053 12.75 7.125C12.75 6.08947 13.5895 5.25 14.625 5.25M14.625 9C15.6605 9 16.5 8.16053 16.5 7.125C16.5 6.08947 15.6605 5.25 14.625 5.25M14.625 9V15.75M14.625 5.25V2.25M9 14.2499C7.96447 14.2499 7.125 13.4104 7.125 12.3749C7.125 11.3393 7.96447 10.4999 9 10.4999M9 14.2499C10.0355 14.2499 10.875 13.4104 10.875 12.3749C10.875 11.3393 10.0355 10.4999 9 10.4999M9 14.2499V15.7497M9 10.4999V2.25009M3.375 7.5C2.33947 7.5 1.5 6.66053 1.5 5.625C1.5 4.58947 2.33947 3.75 3.375 3.75M3.375 7.5C4.41053 7.5 5.25 6.66053 5.25 5.625C5.25 4.58947 4.41053 3.75 3.375 3.75M3.375 7.5V15.75M3.375 3.75V2.25" stroke="#00588F" stroke-width="1.5" stroke-linecap="round" stroke-linejoin="round"/>
</svg>
