<svg width="6" height="9" viewBox="0 0 6 9" fill="none" xmlns="http://www.w3.org/2000/svg">
<path d="M4.08673 4.37352C4.16513 4.4293 4.22736 4.49566 4.26983 4.56878C4.31229 4.64189 4.33415 4.72032 4.33415 4.79952C4.33415 4.87873 4.31229 4.95715 4.26983 5.03027C4.22736 5.10339 4.16513 5.16975 4.08673 5.22552L0.247421 7.97352C0.169022 8.0293 0.106794 8.09566 0.0643282 8.16878C0.021863 8.24189 0 8.32032 0 8.39952C0 8.47873 0.021863 8.55716 0.0643282 8.63027C0.106794 8.70339 0.169022 8.76975 0.247421 8.82552C0.40414 8.93728 0.616141 9 0.83712 9C1.0581 9 1.2701 8.93728 1.42682 8.82552L5.26613 6.07152C5.73605 5.73402 6 5.27653 6 4.79952C6 4.32252 5.73605 3.86503 5.26613 3.52752L1.42682 0.773524C1.27102 0.662678 1.06074 0.600187 0.841302 0.599524C0.731219 0.599068 0.622093 0.614202 0.520182 0.644061C0.418271 0.67392 0.325579 0.717916 0.247421 0.773524C0.169022 0.829303 0.106794 0.895662 0.0643282 0.968778C0.021863 1.04189 0 1.12032 0 1.19952C0 1.27873 0.021863 1.35715 0.0643282 1.43027C0.106794 1.50339 0.169022 1.56975 0.247421 1.62552L4.08673 4.37352Z" fill="#7A9AAE"/>
</svg>
