<svg width="8" height="12" viewBox="0 0 8 12" fill="none" xmlns="http://www.w3.org/2000/svg">
<path d="M2.55102 5.39113C2.44649 5.47081 2.36352 5.5656 2.3069 5.67005C2.25028 5.77449 2.22113 5.88652 2.22113 5.99967C2.22113 6.11281 2.25028 6.22484 2.3069 6.32929C2.36352 6.43373 2.44649 6.52853 2.55102 6.6082L7.67011 10.5337C7.77464 10.6134 7.85761 10.7082 7.91423 10.8126C7.97085 10.9171 8 11.0291 8 11.1422C8 11.2554 7.97085 11.3674 7.91423 11.4718C7.85761 11.5763 7.77464 11.6711 7.67011 11.7508C7.46115 11.9104 7.17848 12 6.88384 12C6.5892 12 6.30654 11.9104 6.09758 11.7508L0.978492 7.81671C0.351932 7.33459 0 6.68106 0 5.99967C0 5.31828 0.351932 4.66475 0.978492 4.18263L6.09758 0.248571C6.30531 0.0902281 6.58568 0.000961304 6.87826 1.43051e-05C7.02504 -0.000638008 7.17054 0.0209818 7.30642 0.0636349C7.44231 0.106288 7.5659 0.169135 7.67011 0.248571C7.77464 0.328249 7.85761 0.423044 7.91423 0.527489C7.97085 0.631933 8 0.743961 8 0.857108C8 0.970255 7.97085 1.08228 7.91423 1.18673C7.85761 1.29117 7.77464 1.38597 7.67011 1.46564L2.55102 5.39113Z" fill="#3275AF"/>
</svg>
