<svg width="13" height="12" viewBox="0 0 13 12" fill="none" xmlns="http://www.w3.org/2000/svg">
<path d="M3.79797 9C2.8709 9.206 2.27734 9.522 2.27734 9.877C2.27734 10.497 4.09297 11 6.33235 11C8.57173 11 10.3874 10.497 10.3874 9.877C10.3874 9.522 9.79381 9.206 8.86673 9M7.59954 4.5C7.59954 4.83152 7.46604 5.14946 7.22839 5.38388C6.99075 5.6183 6.66843 5.75 6.33235 5.75C5.99627 5.75 5.67396 5.6183 5.43631 5.38388C5.19867 5.14946 5.06516 4.83152 5.06516 4.5C5.06516 4.16848 5.19867 3.85054 5.43631 3.61612C5.67396 3.3817 5.99627 3.25 6.33235 3.25C6.66843 3.25 6.99075 3.3817 7.22839 3.61612C7.46604 3.85054 7.59954 4.16848 7.59954 4.5Z" stroke="#7A9AAE" stroke-width="0.8" stroke-linecap="round" stroke-linejoin="round"/>
<path d="M6.97068 8.747C6.79947 8.90949 6.57112 9.00025 6.33353 9.00025C6.09595 9.00025 5.8676 8.90949 5.69639 8.747C4.13065 7.2505 2.03269 5.579 3.05556 3.152C3.60958 1.8395 4.9376 1 6.33353 1C7.72947 1 9.05799 1.84 9.6115 3.152C10.6334 5.5755 8.54047 7.2555 6.97068 8.747Z" stroke="#7A9AAE" stroke-width="0.8" stroke-linecap="round" stroke-linejoin="round"/>
</svg>
