<svg width="309" height="98" viewBox="0 0 309 98" fill="none" xmlns="http://www.w3.org/2000/svg">
<path d="M216.335 44.9977C214.455 44.9977 213.066 43.6495 213.066 41.9336C213.066 40.2178 214.455 38.8696 216.335 38.8696C218.214 38.8696 219.603 40.1361 219.603 41.8111C219.603 43.6086 218.255 44.9977 216.335 44.9977ZM213.761 70.4086L213.761 48.5928L218.868 48.5928L218.868 70.4086L213.761 70.4086Z" fill="#187BCD"/>
<path d="M197.281 48.3467C203.573 48.3467 207.209 51.3291 207.209 57.6205L207.209 70.4077L202.388 70.4077L202.388 67.7522C201.162 69.6315 198.793 70.6937 195.524 70.6937C190.54 70.6937 187.395 67.9565 187.395 64.1571C187.395 60.5211 189.846 57.6614 196.464 57.6614L202.102 57.6614L202.102 57.3345C202.102 54.3522 200.304 52.5955 196.668 52.5955C194.217 52.5955 191.684 53.4126 190.05 54.7608L188.048 51.0431C190.377 49.2455 193.768 48.3467 197.281 48.3467ZM196.587 66.976C199.079 66.976 201.244 65.8321 202.102 63.5851L202.102 61.0522L196.832 61.0522C193.359 61.0522 192.42 62.3595 192.42 63.9528C192.42 65.7912 193.972 66.976 196.587 66.976Z" fill="#187BCD"/>
<path d="M165.87 40.0956L170.976 40.0956L170.976 70.4089L166.074 70.4089L166.074 67.59C164.358 69.6736 161.825 70.6949 158.843 70.6949C152.511 70.6949 147.812 66.2827 147.812 59.501C147.812 52.7193 152.511 48.348 158.843 48.348C161.662 48.348 164.154 49.2876 165.87 51.2894L165.87 40.0956ZM159.456 66.3236C163.133 66.3236 165.952 63.6681 165.952 59.501C165.952 55.3339 163.133 52.6785 159.456 52.6785C155.779 52.6785 152.96 55.3339 152.96 59.501C152.96 63.6681 155.779 66.3236 159.456 66.3236Z" fill="#187BCD"/>
<path d="M137.717 51.7784C139.188 49.4906 141.843 48.3467 145.479 48.3467L145.479 53.2083C145.03 53.1266 144.662 53.0858 144.294 53.0858C140.413 53.0858 137.962 55.3736 137.962 59.8266L137.962 70.4077L132.855 70.4077L132.855 48.5919L137.717 48.5919L137.717 51.7784Z" fill="#187BCD"/>
<path d="M123.62 44.9977C121.741 44.9977 120.352 43.6495 120.352 41.9336C120.352 40.2178 121.741 38.8696 123.62 38.8696C125.499 38.8696 126.888 40.1361 126.888 41.8111C126.888 43.6086 125.54 44.9977 123.62 44.9977ZM121.046 70.4086L121.046 48.5928L126.153 48.5928L126.153 70.4086L121.046 70.4086Z" fill="#187BCD"/>
<path d="M105.128 48.348C111.501 48.348 116.199 52.7193 116.199 59.501C116.199 66.2827 111.501 70.6949 105.128 70.6949C102.146 70.6949 99.6126 69.6736 97.8967 67.59L97.8967 70.4089L93.0352 70.4089L93.0352 40.0956L98.1419 40.0956L98.1419 51.2486C99.8986 49.2876 102.35 48.348 105.128 48.348ZM104.556 66.3236C108.233 66.3236 111.011 63.6681 111.011 59.501C111.011 55.3339 108.233 52.6785 104.556 52.6785C100.879 52.6785 98.0602 55.3339 98.0602 59.501C98.0602 63.6681 100.879 66.3236 104.556 66.3236Z" fill="#187BCD"/>
<path d="M88.1303 59.6223C88.1303 60.0309 88.0894 60.6437 88.0486 61.1339L70.9309 61.1339C71.5437 64.3205 74.1992 66.3632 77.9986 66.3632C80.4498 66.3632 82.3699 65.587 83.9224 63.9937L86.6596 67.1394C84.6986 69.4681 81.6346 70.6937 77.876 70.6937C70.5632 70.6937 65.8242 65.9955 65.8242 59.4998C65.8242 53.0041 70.6041 48.3467 77.0998 48.3467C83.473 48.3467 88.1303 52.7998 88.1303 59.6223ZM77.0998 52.4321C73.7907 52.4321 71.3803 54.5565 70.8901 57.7431L83.2687 57.7431C82.8602 54.5973 80.4498 52.4321 77.0998 52.4321Z" fill="#187BCD"/>
<path d="M55.8304 48.5916L60.9371 48.5916L60.9371 70.4074L56.0755 70.4074L56.0755 67.6293C54.4414 69.6312 51.8676 70.6934 49.0487 70.6934C43.4517 70.6934 39.6523 67.6293 39.6523 61.0519L39.6523 48.5916L44.759 48.5916L44.759 60.3574C44.759 64.3202 46.6383 66.1995 49.8657 66.1995C53.42 66.1995 55.8304 63.9934 55.8304 59.622L55.8304 48.5916Z" fill="#187BCD"/>
<path d="M28.0078 70.4089L28.0078 40.0956L33.1145 40.0956L33.1145 70.4089L28.0078 70.4089Z" fill="#187BCD"/>
<path d="M12.0927 48.348C18.4658 48.348 23.164 52.7193 23.164 59.501C23.164 66.2827 18.4658 70.6949 12.0927 70.6949C9.11035 70.6949 6.57743 69.6736 4.86158 67.59L4.86158 70.4089L-1.68257e-08 70.4089L0 40.0956L5.1067 40.0956L5.1067 51.2486C6.86341 49.2876 9.31462 48.348 12.0927 48.348ZM11.5207 66.3236C15.1975 66.3236 17.9756 63.6681 17.9756 59.501C17.9756 55.3339 15.1975 52.6785 11.5207 52.6785C7.84389 52.6785 5.02499 55.3339 5.02499 59.501C5.02499 63.6681 7.84389 66.3236 11.5207 66.3236Z" fill="#187BCD"/>
<path d="M213.243 87.2778C212.594 87.2778 212.021 87.128 211.522 86.8284C211.033 86.5289 210.654 86.1036 210.384 85.5528C210.115 84.9923 209.98 84.3448 209.98 83.6103C209.98 82.8565 210.115 82.209 210.384 81.6678C210.654 81.1169 211.033 80.6917 211.522 80.3921C212.011 80.0925 212.584 79.9428 213.243 79.9428C213.891 79.9428 214.45 80.0974 214.919 80.4066C215.388 80.7159 215.707 81.1363 215.876 81.6678L215.757 81.6678L215.757 76.9276L216.999 76.9276L216.999 87.1474L215.802 87.1474L215.802 85.4948L215.906 85.4948C215.737 86.0456 215.412 86.4805 214.934 86.7994C214.465 87.1184 213.901 87.2778 213.243 87.2778ZM213.512 86.3066C214.2 86.3066 214.749 86.0698 215.158 85.5963C215.567 85.1227 215.772 84.4607 215.772 83.6103C215.772 82.7405 215.567 82.0737 215.158 81.6098C214.749 81.1459 214.2 80.914 213.512 80.914C212.814 80.914 212.26 81.1459 211.851 81.6098C211.442 82.0737 211.237 82.7405 211.237 83.6103C211.237 84.4607 211.442 85.1227 211.851 85.5963C212.26 86.0698 212.814 86.3066 213.512 86.3066Z" fill="#999696"/>
<path d="M208.217 87.2778C207.479 87.2778 206.92 87.07 206.541 86.6545C206.162 86.2293 205.973 85.6301 205.973 84.857L205.973 76.9276L207.215 76.9276L207.215 84.7555C207.215 85.0744 207.26 85.3498 207.349 85.5818C207.449 85.804 207.589 85.9732 207.768 86.0891C207.958 86.2051 208.187 86.2631 208.457 86.2631C208.586 86.2631 208.706 86.2583 208.816 86.2486C208.936 86.2293 209.055 86.2051 209.175 86.1761L209.145 87.1618C208.995 87.2005 208.841 87.2295 208.681 87.2488C208.532 87.2682 208.377 87.2778 208.217 87.2778Z" fill="#999696"/>
<path d="M200.395 87.1474L200.395 80.0732L201.577 80.0732L201.577 81.7403L201.472 81.7403C201.652 81.1701 201.951 80.7401 202.37 80.4501C202.799 80.1506 203.352 79.9766 204.031 79.9283L204.525 79.8993L204.629 80.9575L203.776 81.03C203.098 81.0976 202.574 81.3151 202.205 81.6823C201.836 82.0496 201.652 82.5376 201.652 83.1464L201.652 87.1474L200.395 87.1474Z" fill="#999696"/>
<path d="M194.961 87.2779C194.243 87.2779 193.619 87.1281 193.091 86.8286C192.562 86.5193 192.153 86.0941 191.864 85.5529C191.574 85.002 191.43 84.3545 191.43 83.6104C191.43 82.8566 191.574 82.2091 191.864 81.6679C192.153 81.1171 192.562 80.6918 193.091 80.3923C193.619 80.0927 194.238 79.9429 194.946 79.9429C195.665 79.9429 196.288 80.0927 196.817 80.3923C197.346 80.6918 197.755 81.1171 198.044 81.6679C198.333 82.2188 198.478 82.8663 198.478 83.6104C198.478 84.3545 198.333 85.002 198.044 85.5529C197.755 86.0941 197.346 86.5193 196.817 86.8286C196.288 87.1281 195.67 87.2779 194.961 87.2779ZM194.946 86.2922C195.645 86.2922 196.198 86.0603 196.607 85.5964C197.016 85.1228 197.221 84.456 197.221 83.5959C197.221 82.7455 197.016 82.0883 196.607 81.6244C196.198 81.1605 195.645 80.9286 194.946 80.9286C194.258 80.9286 193.709 81.1605 193.3 81.6244C192.891 82.0883 192.687 82.7455 192.687 83.5959C192.687 84.456 192.891 85.1228 193.3 85.5964C193.709 86.0603 194.258 86.2922 194.946 86.2922Z" fill="#999696"/>
<path d="M179.185 87.1474L175.578 76.9276L176.895 76.9276L180.008 86.0022L179.589 86.0022L182.836 76.9276L183.853 76.9276L187.056 86.0022L186.682 86.0022L189.824 76.9276L191.081 76.9276L187.46 87.1474L186.322 87.1474L183.195 78.4062L183.449 78.4062L180.307 87.1474L179.185 87.1474Z" fill="#999696"/>
<path d="M170.042 87.2778C169.303 87.2778 168.745 87.07 168.366 86.6545C167.986 86.2293 167.797 85.6301 167.797 84.857L167.797 76.9276L169.039 76.9276L169.039 84.7555C169.039 85.0744 169.084 85.3498 169.174 85.5818C169.273 85.804 169.413 85.9732 169.593 86.0891C169.782 86.2051 170.012 86.2631 170.281 86.2631C170.411 86.2631 170.53 86.2583 170.64 86.2486C170.76 86.2293 170.88 86.2051 170.999 86.1761L170.969 87.1618C170.82 87.2005 170.665 87.2295 170.505 87.2488C170.356 87.2682 170.201 87.2778 170.042 87.2778Z" fill="#999696"/>
<path d="M161.946 87.2779C161.437 87.2779 160.983 87.1861 160.584 87.0025C160.185 86.8092 159.871 86.5483 159.641 86.2197C159.412 85.8911 159.297 85.5239 159.297 85.118C159.297 84.5961 159.437 84.1854 159.716 83.8858C160.005 83.5766 160.469 83.3591 161.108 83.2335C161.756 83.0982 162.619 83.0306 163.696 83.0306L164.475 83.0306L164.475 83.8278L163.726 83.8278C163.128 83.8278 162.624 83.8472 162.215 83.8858C161.806 83.9245 161.477 83.9921 161.227 84.0888C160.988 84.1758 160.813 84.3014 160.704 84.4657C160.594 84.6203 160.539 84.8136 160.539 85.0455C160.539 85.4418 160.684 85.7607 160.973 86.0023C161.272 86.2439 161.666 86.3647 162.155 86.3647C162.564 86.3647 162.923 86.2729 163.232 86.0892C163.552 85.896 163.801 85.6399 163.981 85.321C164.17 85.002 164.265 84.6445 164.265 84.2482L164.265 82.5812C164.265 81.9917 164.13 81.5664 163.861 81.3055C163.592 81.0349 163.163 80.8996 162.574 80.8996C162.135 80.8996 161.706 80.9624 161.287 81.0881C160.878 81.2137 160.454 81.407 160.015 81.6679L159.596 80.7981C159.866 80.6145 160.165 80.4599 160.494 80.3343C160.833 80.2086 161.182 80.112 161.542 80.0443C161.911 79.9767 162.27 79.9429 162.619 79.9429C163.247 79.9429 163.771 80.0395 164.19 80.2328C164.619 80.4261 164.938 80.7257 165.148 81.1316C165.367 81.5375 165.477 82.0593 165.477 82.6971L165.477 87.1475L164.325 87.1475L164.325 85.5239L164.43 85.5239C164.33 85.8718 164.165 86.1811 163.936 86.4517C163.706 86.7126 163.422 86.9155 163.083 87.0605C162.754 87.2055 162.375 87.2779 161.946 87.2779Z" fill="#999696"/>
<path d="M155.72 87.2779C154.982 87.2779 154.344 87.1233 153.805 86.8141C153.276 86.5048 152.862 86.0748 152.563 85.5239C152.274 84.9634 152.129 84.3111 152.129 83.5669C152.129 82.8228 152.274 82.1801 152.563 81.6389C152.862 81.0977 153.276 80.6822 153.805 80.3923C154.344 80.0927 154.982 79.9429 155.72 79.9429C156.189 79.9429 156.643 80.025 157.082 80.1893C157.531 80.3439 157.9 80.5614 158.189 80.8416L157.755 81.7114C157.466 81.4505 157.147 81.2572 156.798 81.1316C156.459 81.0059 156.124 80.9431 155.795 80.9431C155.037 80.9431 154.448 81.1702 154.029 81.6244C153.61 82.0786 153.401 82.731 153.401 83.5814C153.401 84.4222 153.61 85.0842 154.029 85.5674C154.448 86.0409 155.037 86.2777 155.795 86.2777C156.114 86.2777 156.449 86.2149 156.798 86.0892C157.147 85.9636 157.461 85.7703 157.74 85.5094L158.174 86.3792C157.885 86.6594 157.516 86.8817 157.067 87.046C156.618 87.2006 156.169 87.2779 155.72 87.2779Z" fill="#999696"/>
<path d="M148.82 78.3192L148.82 76.9856L150.347 76.9856L150.347 78.3192L148.82 78.3192ZM148.97 87.1474L148.97 80.0733L150.212 80.0733L150.212 87.1474L148.97 87.1474Z" fill="#999696"/>
<path d="M144.074 87.2779C143.695 87.2779 143.32 87.2393 142.951 87.162C142.592 87.0943 142.258 86.9977 141.949 86.872C141.639 86.7367 141.37 86.5773 141.141 86.3937L141.53 85.5384C141.779 85.722 142.043 85.8766 142.323 86.0023C142.612 86.1182 142.906 86.2052 143.206 86.2632C143.505 86.3212 143.804 86.3502 144.104 86.3502C144.682 86.3502 145.121 86.2535 145.42 86.0603C145.73 85.8573 145.884 85.5867 145.884 85.2485C145.884 84.9682 145.785 84.7508 145.585 84.5961C145.395 84.4415 145.091 84.3207 144.672 84.2337L143.266 83.9583C142.627 83.823 142.148 83.6007 141.829 83.2915C141.51 82.9726 141.35 82.5618 141.35 82.0593C141.35 81.6341 141.47 81.262 141.709 80.9431C141.949 80.6242 142.288 80.3778 142.727 80.2038C143.166 80.0298 143.675 79.9429 144.253 79.9429C144.592 79.9429 144.927 79.9767 145.256 80.0443C145.585 80.112 145.889 80.2135 146.169 80.3488C146.458 80.4744 146.697 80.6339 146.887 80.8271L146.483 81.6679C146.283 81.494 146.059 81.349 145.809 81.233C145.57 81.1171 145.316 81.0301 145.046 80.9721C144.787 80.9045 144.523 80.8706 144.253 80.8706C143.695 80.8706 143.266 80.9769 142.966 81.1895C142.667 81.3925 142.517 81.6679 142.517 82.0158C142.517 82.2864 142.607 82.5039 142.787 82.6682C142.966 82.8324 143.251 82.9532 143.64 83.0306L145.031 83.3205C145.71 83.4558 146.214 83.6732 146.543 83.9728C146.882 84.2724 147.052 84.6735 147.052 85.176C147.052 85.6109 146.927 85.9878 146.677 86.3067C146.438 86.6159 146.094 86.8575 145.645 87.0315C145.206 87.1958 144.682 87.2779 144.074 87.2779Z" fill="#999696"/>
<path d="M134.739 89.7563L136.116 86.7556L136.116 87.3645L132.898 80.0729L134.23 80.0729L136.789 86.1903L136.475 86.1903L139.049 80.0729L140.351 80.0729L136.056 89.7563L134.739 89.7563Z" fill="#999696"/>
<path d="M125.25 87.1474L125.25 76.9276L126.477 76.9276L126.477 81.6243L126.327 81.6243C126.547 81.0735 126.891 80.6579 127.36 80.3776C127.839 80.0877 128.383 79.9428 128.991 79.9428C129.59 79.9428 130.078 80.0442 130.458 80.2472C130.847 80.4501 131.136 80.7594 131.325 81.1749C131.525 81.5905 131.625 82.1123 131.625 82.7405L131.625 87.1474L130.383 87.1474L130.383 82.813C130.383 82.3974 130.323 82.0495 130.203 81.7693C130.093 81.489 129.914 81.2812 129.664 81.1459C129.425 81.0106 129.106 80.943 128.707 80.943C128.268 80.943 127.879 81.0348 127.54 81.2184C127.21 81.402 126.951 81.6581 126.761 81.9867C126.582 82.3153 126.492 82.697 126.492 83.1319L126.492 87.1474L125.25 87.1474Z" fill="#999696"/>
<path d="M115.754 87.1474L115.754 76.9276L119.974 76.9276C120.732 76.9276 121.37 77.0484 121.889 77.29C122.418 77.5316 122.817 77.8795 123.086 78.3337C123.366 78.7879 123.505 79.3436 123.505 80.0007C123.505 80.6386 123.366 81.1894 123.086 81.6533C122.817 82.1172 122.418 82.4699 121.889 82.7115C121.37 82.9531 120.732 83.0739 119.974 83.0739L117.011 83.0739L117.011 87.1474L115.754 87.1474ZM117.011 82.0592L119.809 82.0592C120.617 82.0592 121.226 81.8852 121.635 81.5373C122.044 81.1894 122.248 80.6772 122.248 80.0007C122.248 79.3243 122.044 78.8121 121.635 78.4641C121.226 78.1162 120.617 77.9423 119.809 77.9423L117.011 77.9423L117.011 82.0592Z" fill="#999696"/>
<path d="M106.828 87.2779C106.05 87.2779 105.377 87.133 104.808 86.8431C104.239 86.5435 103.8 86.1231 103.491 85.5819C103.182 85.031 103.027 84.3787 103.027 83.6249C103.027 82.8904 103.177 82.2478 103.476 81.6969C103.776 81.1461 104.19 80.716 104.718 80.4067C105.257 80.0975 105.876 79.9429 106.574 79.9429C107.252 79.9429 107.826 80.0878 108.295 80.3778C108.774 80.658 109.143 81.0591 109.402 81.5809C109.661 82.0931 109.791 82.7165 109.791 83.4509L109.791 83.8858L103.97 83.8858L103.97 83.0885L108.968 83.0885L108.714 83.2915C108.714 82.5184 108.534 81.9192 108.175 81.494C107.816 81.0591 107.292 80.8416 106.604 80.8416C106.105 80.8416 105.676 80.9528 105.317 81.175C104.968 81.3973 104.698 81.7066 104.509 82.1028C104.319 82.499 104.224 82.9629 104.224 83.4944L104.224 83.5959C104.224 84.1854 104.324 84.6831 104.524 85.089C104.733 85.4852 105.033 85.7897 105.422 86.0023C105.811 86.2052 106.28 86.3067 106.828 86.3067C107.257 86.3067 107.676 86.2439 108.085 86.1182C108.494 85.9926 108.878 85.78 109.238 85.4804L109.657 86.3357C109.317 86.6353 108.888 86.8672 108.37 87.0315C107.861 87.1958 107.347 87.2779 106.828 87.2779Z" fill="#999696"/>
<path d="M94.7656 87.1474L94.7656 76.9276L95.9927 76.9276L95.9927 81.6243L95.843 81.6243C96.0625 81.0735 96.4067 80.6579 96.8756 80.3776C97.3544 80.0877 97.8981 79.9428 98.5067 79.9428C99.1053 79.9428 99.5941 80.0442 99.9732 80.2472C100.362 80.4501 100.652 80.7594 100.841 81.1749C101.041 81.5905 101.14 82.1123 101.14 82.7405L101.14 87.1474L99.8984 87.1474L99.8984 82.813C99.8984 82.3974 99.8385 82.0495 99.7188 81.7693C99.609 81.489 99.4295 81.2812 99.1801 81.1459C98.9406 81.0106 98.6214 80.943 98.2224 80.943C97.7834 80.943 97.3943 81.0348 97.0552 81.2184C96.7259 81.402 96.4666 81.6581 96.277 81.9867C96.0974 82.3153 96.0076 82.697 96.0076 83.1319L96.0076 87.1474L94.7656 87.1474Z" fill="#999696"/>
<path d="M92.2506 87.2775C91.3827 87.2775 90.7292 87.0552 90.2903 86.6107C89.8613 86.1662 89.6468 85.5283 89.6468 84.6972L89.6468 81.0152L88.1953 81.0152L88.1953 80.0729L89.6468 80.0729L89.6468 77.9275L90.8889 77.9275L90.8889 80.0729L93.2682 80.0729L93.2682 81.0152L90.8889 81.0152L90.8889 84.5812C90.8889 85.1321 91.0086 85.5476 91.248 85.8279C91.4874 86.1082 91.8765 86.2483 92.4152 86.2483C92.5848 86.2483 92.7544 86.229 92.924 86.1903C93.0936 86.1517 93.2482 86.1082 93.3879 86.0598L93.5974 86.9876C93.4577 87.0649 93.2582 87.1326 92.9988 87.1905C92.7395 87.2485 92.49 87.2775 92.2506 87.2775Z" fill="#999696"/>
<path d="M79.7617 87.1474L79.7617 80.0732L80.9439 80.0732L80.9439 81.7403L80.8391 81.7403C81.0187 81.1701 81.318 80.7401 81.737 80.4501C82.166 80.1506 82.7197 79.9766 83.398 79.9283L83.8918 79.8993L83.9966 80.9575L83.1436 81.03C82.4653 81.0976 81.9415 81.3151 81.5724 81.6823C81.2033 82.0496 81.0187 82.5376 81.0187 83.1464L81.0187 87.1474L79.7617 87.1474Z" fill="#999696"/>
<path d="M74.3206 87.2779C73.6023 87.2779 72.9788 87.1281 72.4501 86.8286C71.9214 86.5193 71.5123 86.0941 71.223 85.5529C70.9337 85.002 70.7891 84.3545 70.7891 83.6104C70.7891 82.8566 70.9337 82.2091 71.223 81.6679C71.5123 81.1171 71.9214 80.6918 72.4501 80.3923C72.9788 80.0927 73.5974 79.9429 74.3057 79.9429C75.0239 79.9429 75.6475 80.0927 76.1762 80.3923C76.7049 80.6918 77.1139 81.1171 77.4033 81.6679C77.6926 82.2188 77.8372 82.8663 77.8372 83.6104C77.8372 84.3545 77.6926 85.002 77.4033 85.5529C77.1139 86.0941 76.7049 86.5193 76.1762 86.8286C75.6475 87.1281 75.0289 87.2779 74.3206 87.2779ZM74.3057 86.2922C75.004 86.2922 75.5577 86.0603 75.9667 85.5964C76.3757 85.1228 76.5802 84.456 76.5802 83.5959C76.5802 82.7455 76.3757 82.0883 75.9667 81.6244C75.5577 81.1605 75.004 80.9286 74.3057 80.9286C73.6173 80.9286 73.0686 81.1605 72.6596 81.6244C72.2506 82.0883 72.0461 82.7455 72.0461 83.5959C72.0461 84.456 72.2506 85.1228 72.6596 85.5964C73.0686 86.0603 73.6173 86.2922 74.3057 86.2922Z" fill="#999696"/>
<path d="M66.6586 87.1474L66.6586 81.0155L65.207 81.0155L65.207 80.0733L66.9878 80.0733L66.6586 80.3777L66.6586 79.8558C66.6586 78.9184 66.908 78.2081 67.4068 77.7249C67.9056 77.2417 68.6588 76.9711 69.6664 76.9131L70.3098 76.8696L70.3996 77.8264L69.6664 77.8699C69.2673 77.8892 68.9381 77.9713 68.6787 78.1163C68.4194 78.2516 68.2248 78.4497 68.0951 78.7106C67.9654 78.9716 67.9006 79.305 67.9006 79.7109L67.9006 80.2617L67.721 80.0733L70.0554 80.0733L70.0554 81.0155L67.9006 81.0155L67.9006 87.1474L66.6586 87.1474Z" fill="#999696"/>
<path d="M58.5312 87.1474L58.5312 76.9276L59.7882 76.9276L59.7882 87.1474L58.5312 87.1474Z" fill="#999696"/>
<path d="M46.4492 87.1474L51.1031 76.9276L52.1955 76.9276L56.8344 87.1474L55.5325 87.1474L54.2306 84.2336L54.8442 84.567L48.4245 84.567L49.038 84.2336L47.7511 87.1474L46.4492 87.1474ZM51.6268 78.3337L49.2326 83.8132L48.8734 83.5378L54.4102 83.5378L54.0511 83.8132L51.6568 78.3337L51.6268 78.3337Z" fill="#999696"/>
<path d="M34.6641 87.1475L34.6641 80.0733L35.8612 80.0733L35.8612 81.6389L35.7415 81.6389C35.951 81.0784 36.2952 80.658 36.774 80.3778C37.2529 80.0878 37.7966 79.9429 38.4051 79.9429C39.0037 79.9429 39.4975 80.0443 39.8866 80.2473C40.2757 80.4502 40.565 80.7595 40.7545 81.175C40.9441 81.5906 41.0388 82.1125 41.0388 82.7406L41.0388 87.1475L39.7968 87.1475L39.7968 82.8131C39.7968 82.3976 39.7369 82.0496 39.6172 81.7694C39.5075 81.4891 39.3279 81.2814 39.0785 81.1461C38.8391 81.0108 38.5198 80.9431 38.1208 80.9431C37.6819 80.9431 37.2928 81.0349 36.9536 81.2185C36.6244 81.4022 36.365 81.6583 36.1755 81.9868C35.9959 82.3154 35.9061 82.6971 35.9061 83.132L35.9061 87.1475L34.6641 87.1475Z" fill="#999696"/>
<path d="M29.223 87.2779C28.5047 87.2779 27.8812 87.1281 27.3524 86.8286C26.8237 86.5193 26.4147 86.0941 26.1254 85.5529C25.8361 85.002 25.6914 84.3545 25.6914 83.6104C25.6914 82.8566 25.8361 82.2091 26.1254 81.6679C26.4147 81.1171 26.8237 80.6918 27.3524 80.3923C27.8812 80.0927 28.4997 79.9429 29.208 79.9429C29.9263 79.9429 30.5498 80.0927 31.0785 80.3923C31.6073 80.6918 32.0163 81.1171 32.3056 81.6679C32.5949 82.2188 32.7396 82.8663 32.7396 83.6104C32.7396 84.3545 32.5949 85.002 32.3056 85.5529C32.0163 86.0941 31.6073 86.5193 31.0785 86.8286C30.5498 87.1281 29.9313 87.2779 29.223 87.2779ZM29.208 86.2922C29.9063 86.2922 30.46 86.0603 30.869 85.5964C31.2781 85.1228 31.4826 84.456 31.4826 83.5959C31.4826 82.7455 31.2781 82.0883 30.869 81.6244C30.46 81.1605 29.9063 80.9286 29.208 80.9286C28.5196 80.9286 27.971 81.1605 27.5619 81.6244C27.1529 82.0883 26.9484 82.7455 26.9484 83.5959C26.9484 84.456 27.1529 85.1228 27.5619 85.5964C27.971 86.0603 28.5196 86.2922 29.208 86.2922Z" fill="#999696"/>
<path d="M22.3789 78.3192L22.3789 76.9856L23.9053 76.9856L23.9053 78.3192L22.3789 78.3192ZM22.5285 87.1474L22.5285 80.0733L23.7706 80.0733L23.7706 87.1474L22.5285 87.1474Z" fill="#999696"/>
<path d="M17.6361 87.2779C17.257 87.2779 16.8829 87.2393 16.5138 87.162C16.1547 87.0943 15.8205 86.9977 15.5112 86.872C15.2019 86.7367 14.9326 86.5773 14.7031 86.3937L15.0922 85.5384C15.3416 85.722 15.606 85.8766 15.8853 86.0023C16.1746 86.1182 16.4689 86.2052 16.7682 86.2632C17.0675 86.3212 17.3668 86.3502 17.666 86.3502C18.2447 86.3502 18.6836 86.2535 18.9829 86.0603C19.2922 85.8573 19.4468 85.5867 19.4468 85.2485C19.4468 84.9682 19.347 84.7508 19.1475 84.5961C18.958 84.4415 18.6537 84.3207 18.2347 84.2337L16.828 83.9583C16.1896 83.823 15.7107 83.6007 15.3915 83.2915C15.0722 82.9726 14.9126 82.5618 14.9126 82.0593C14.9126 81.6341 15.0323 81.262 15.2718 80.9431C15.5112 80.6242 15.8504 80.3778 16.2893 80.2038C16.7283 80.0298 17.2371 79.9429 17.8157 79.9429C18.1549 79.9429 18.4891 79.9767 18.8183 80.0443C19.1475 80.112 19.4518 80.2135 19.7311 80.3488C20.0204 80.4744 20.2598 80.6339 20.4494 80.8271L20.0454 81.6679C19.8458 81.494 19.6214 81.349 19.372 81.233C19.1325 81.1171 18.8781 81.0301 18.6088 80.9721C18.3494 80.9045 18.085 80.8706 17.8157 80.8706C17.257 80.8706 16.828 80.9769 16.5288 81.1895C16.2295 81.3925 16.0798 81.6679 16.0798 82.0158C16.0798 82.2864 16.1696 82.5039 16.3492 82.6682C16.5288 82.8324 16.8131 82.9532 17.2022 83.0306L18.5938 83.3205C19.2722 83.4558 19.776 83.6732 20.1052 83.9728C20.4444 84.2724 20.614 84.6735 20.614 85.176C20.614 85.6109 20.4893 85.9878 20.2399 86.3067C20.0005 86.6159 19.6563 86.8575 19.2074 87.0315C18.7684 87.1958 18.2447 87.2779 17.6361 87.2779Z" fill="#999696"/>
<path d="M11.3633 78.3192L11.3633 76.9856L12.8896 76.9856L12.8896 78.3192L11.3633 78.3192ZM11.5129 87.1474L11.5129 80.0733L12.755 80.0733L12.755 87.1474L11.5129 87.1474Z" fill="#999696"/>
<path d="M4.59402 87.1474L0 76.9276L1.34678 76.9276L5.38713 86.0456L4.98309 86.0456L9.00847 76.9276L10.3253 76.9276L5.7313 87.1474L4.59402 87.1474Z" fill="#999696"/>
<path d="M255.641 39.771L258.412 44.3728L268.391 33.2823L255.641 39.771Z" fill="#72C8F1"/>
<path d="M255.641 39.7714L257.685 28.1585L268.391 33.2827L255.641 39.7714Z" fill="#53A1CC"/>
<path d="M275.25 16.6491L257.684 28.1589L268.389 33.2831L275.25 16.6491Z" fill="#2F7CAC"/>
<path d="M276.81 14.2781L257.684 28.1581L283.134 6.10208e-05L276.81 14.2781Z" fill="#016699"/>
<path d="M243.332 55.4492L263.822 40.2508L268.355 62.5882L243.332 55.4492Z" fill="#ACD9F4"/>
<path d="M243.332 55.4489L258.261 44.3762L251.28 36.5265L243.332 55.4489Z" fill="#016699"/>
<path d="M247.421 41.4914L243.597 39.9598L239.829 40.2512L238.445 38.7303L241.771 36.0865L244.836 34.9138L251.28 36.5271L249.204 41.4736L247.421 41.4914Z" fill="#72C8F1"/>
<path d="M247.42 41.4902L243.596 39.9586L239.828 40.25L246.625 47.6093L249.203 41.4724L247.42 41.4902Z" fill="#46C8F5"/>
<path d="M243.332 55.4483L271.801 76.1049L265.979 61.9121L243.332 55.4483Z" fill="#2F7CAC"/>
<path d="M259.027 79.8375L262.032 69.0206L271.799 76.1063L259.027 79.8375Z" fill="#46C8F5"/>
<path d="M259.027 79.8368L263.819 87.8037L271.799 76.1056L259.027 79.8368Z" fill="#72C8F1"/>
<path d="M266.975 97.42L263.395 91.2724L271.802 76.106L266.975 97.42Z" fill="#016699"/>
<path d="M280.864 54.3616L263.82 40.2506L268.354 62.588L280.864 54.3616Z" fill="#46C8F5"/>
<path d="M280.864 54.3616L263.82 40.2506L287.823 42.4289L280.864 54.3616Z" fill="#53A1CC"/>
<path d="M308.147 28.1538L263.82 40.25L292.06 41.6714L308.147 28.1538Z" fill="#2F7CAC"/>
<path d="M243.596 39.9591L224 41.5262L238.445 38.7296L240.058 39.6393L243.596 39.9591Z" fill="#9BD4F3"/>
<path d="M243.596 39.9586L224 41.5257L242.735 41.3267L243.596 39.9586Z" fill="#2F7CAC"/>
<path d="M243.203 37.6005L242.832 38.7305L243.542 39.5549L244.714 39.6011L245.194 39.1392L245.392 38.1371L244.396 37.2309L243.203 37.6005Z" fill="#E9F4F7"/>
<path d="M263.82 40.2508L292.06 41.6722L287.823 42.4291L263.82 40.2508Z" fill="#1C3664"/>
<path d="M257.684 28.1581L276.81 14.2781L275.25 16.6483L257.684 28.1581Z" fill="#1C3664"/>
<path d="M271.802 76.1056L263.395 91.272L263.822 87.8037L271.802 76.1056Z" fill="#1C3664"/>
</svg>
