<svg width="20" height="20" viewBox="0 0 20 20" fill="none" xmlns="http://www.w3.org/2000/svg">
<path d="M4.45193 19.9996C3.31895 20.016 2.22364 19.5723 1.39426 18.7608C0.564886 17.9494 0.0654348 16.8328 -4.35552e-09 15.6439L-4.29738e-09 15.4351L-1.27161e-09 4.56729C0.0101693 3.37802 0.457156 2.23888 1.24758 1.38784C2.03801 0.536805 3.11073 0.0396999 4.24165 0.000377003L4.44612 0.000377003L9.0851 0.000377002C10.2173 -0.0148123 11.3114 0.429486 12.1398 1.2408C12.9682 2.05211 13.467 3.16794 13.5324 4.35604L13.5324 5.4819C13.5255 5.73088 13.4306 5.96823 13.2662 6.14761C13.1017 6.32699 12.8796 6.43551 12.6431 6.45199C12.4067 6.46846 12.1729 6.39171 11.9873 6.23672C11.8018 6.08173 11.6779 5.85962 11.6398 5.61377L11.6364 5.49533L11.6364 4.57218C11.6299 3.89599 11.3776 3.24802 10.931 2.7612C10.4845 2.27437 9.87764 1.98561 9.23497 1.95414L9.07813 1.95414L4.45193 1.95414C3.80907 1.94737 3.1879 2.19828 2.71481 2.65583C2.24172 3.11337 1.95226 3.74318 1.90531 4.4171L1.90531 4.57828L1.90531 15.429C1.91251 16.1031 2.16414 16.749 2.60887 17.2348C3.05361 17.7206 3.65794 18.0098 4.29858 18.0434L4.45542 18.0434L9.09091 18.0434C9.73176 18.0504 10.351 17.8003 10.8225 17.344C11.294 16.8877 11.5821 16.2596 11.6282 15.5877L11.6282 14.5144C11.6351 14.2654 11.73 14.028 11.8944 13.8487C12.0589 13.6693 12.281 13.5608 12.5175 13.5443C12.7539 13.5278 12.9878 13.6046 13.1733 13.7595C13.3588 13.9145 13.4827 14.1366 13.5208 14.3825L13.5277 14.4973L13.5277 15.4339C13.5164 16.6191 13.0706 17.7541 12.2831 18.6025C11.4956 19.451 10.4271 19.9474 9.30003 19.9886L9.09091 19.9886L4.45193 19.9996ZM16.2649 13.8196C16.0138 13.8203 15.7724 13.7177 15.5922 13.5338C15.4326 13.3698 15.3354 13.1501 15.3189 12.916C15.3024 12.682 15.3678 12.4496 15.5028 12.2627L15.5818 12.1674C16.0152 11.7227 15.7002 10.9756 15.0792 10.9756L7.59918 10.9756C7.36899 10.9681 7.14966 10.871 6.98368 10.7032C6.81771 10.5354 6.71693 10.3088 6.70087 10.0673C6.68481 9.82586 6.75462 9.58672 6.89677 9.39627C7.03891 9.20582 7.24327 9.07762 7.47023 9.03652L7.58641 9.02797L15.0965 9.02797C15.7101 9.02797 16.0205 8.28903 15.5911 7.85083C15.431 7.68745 15.3332 7.46832 15.3158 7.23454C15.2985 7.00075 15.3629 6.76834 15.4969 6.58089L15.5759 6.48564C15.739 6.31628 15.9534 6.21239 16.1818 6.19209C16.4103 6.17178 16.6382 6.23634 16.826 6.37452L16.9201 6.45633L19.7084 9.3015C19.8006 9.39117 19.8742 9.49997 19.9244 9.62104C19.9746 9.7421 20.0003 9.87279 20 10.0049C19.9991 10.1382 19.9723 10.2699 19.9211 10.3919C19.87 10.5139 19.7956 10.6236 19.7026 10.7143L16.9376 13.5399C16.7565 13.7217 16.5152 13.822 16.2649 13.8196Z" fill="white" fill-opacity="0.5"/>
</svg>
