<svg width="32" height="29" viewBox="0 0 32 29" fill="none" xmlns="http://www.w3.org/2000/svg">
<path d="M31.49 11.2234V26.5934C31.4898 27.0668 31.3017 27.5207 30.967 27.8554C30.6323 28.1901 30.1784 28.3782 29.705 28.3784H1.78498C1.31163 28.3782 0.857722 28.1901 0.523014 27.8554C0.188307 27.5207 0.000187591 27.0668 8.92094e-08 26.5934V11.2234C-7.51175e-05 10.9861 0.0474019 10.7511 0.139629 10.5323C0.231856 10.3136 0.366964 10.1156 0.536979 9.94995H30.9537C31.1236 10.1157 31.2586 10.3137 31.3507 10.5324C31.4428 10.7512 31.4902 10.9861 31.49 11.2234Z" fill="#0593FC"/>
<path d="M31.2565 27.4743C31.0975 27.755 30.8652 27.9871 30.5844 28.1457L21.4352 19.01C21.388 18.9667 21.35 18.9142 21.3235 18.8558C21.2971 18.7973 21.2828 18.7342 21.2814 18.6701C21.28 18.606 21.2916 18.5422 21.3154 18.4827C21.3393 18.4232 21.375 18.3691 21.4203 18.3238C21.4656 18.2784 21.5197 18.2427 21.5792 18.2187C21.6387 18.1948 21.7024 18.1831 21.7665 18.1844C21.8306 18.1858 21.8938 18.2 21.9522 18.2264C22.0107 18.2528 22.0632 18.2907 22.1066 18.3379L31.2565 27.4743Z" fill="#0181FA"/>
<path d="M10.0517 19.0101L0.902576 28.1472C0.621766 27.9885 0.389429 27.7564 0.230469 27.4758L9.38033 18.3386C9.42374 18.2914 9.47625 18.2535 9.5347 18.2271C9.59315 18.2008 9.65634 18.1865 9.72045 18.1852C9.78456 18.1838 9.84828 18.1955 9.90777 18.2194C9.96726 18.2434 10.0213 18.2791 10.0666 18.3245C10.1119 18.3699 10.1476 18.4239 10.1715 18.4834C10.1954 18.5429 10.207 18.6067 10.2056 18.6708C10.2042 18.7349 10.1898 18.7981 10.1634 18.8565C10.137 18.9149 10.099 18.9674 10.0517 19.0108V19.0101Z" fill="#0181FA"/>
<path d="M30.9541 9.94873H29.5214C29.6915 10.1144 29.8266 10.3124 29.9188 10.5311C30.011 10.7498 30.0585 10.9848 30.0584 11.2222V26.5922C30.0584 27.0656 29.8704 27.5197 29.5356 27.8544C29.2009 28.1892 28.7468 28.3772 28.2734 28.3772H29.7047C30.1781 28.3772 30.6321 28.1892 30.9668 27.8544C31.3016 27.5197 31.4897 27.0656 31.4897 26.5922V11.2243C31.4902 10.9867 31.4431 10.7514 31.3511 10.5323C31.2591 10.3132 31.1241 10.1147 30.9541 9.94873Z" fill="#0181FA"/>
<path d="M30.9519 9.94787L18.1663 22.0967C17.5126 22.7178 16.6453 23.0641 15.7435 23.0641C14.8418 23.0641 13.9745 22.7178 13.3208 22.0967L0.535156 9.94787C0.868081 9.62071 1.31639 9.43773 1.78315 9.43848H29.7046C30.1714 9.43773 30.619 9.62071 30.9519 9.94787Z" fill="#EAF6FF"/>
<path d="M21.8724 9.43848C21.4878 11.1568 20.5293 12.6929 19.1549 13.7937C17.7805 14.8944 16.0721 15.4942 14.3112 15.4942C12.5503 15.4942 10.842 14.8944 9.46755 13.7937C8.09314 12.6929 7.13466 11.1568 6.75 9.43848H21.8724Z" fill="#C8EFFE"/>
<path d="M29.7026 9.43848H28.2714C28.4829 9.4382 28.6927 9.47557 28.8911 9.54884C28.9709 9.57946 29.0416 9.62982 29.0966 9.69519C29.1516 9.76057 29.1892 9.83882 29.2057 9.92265C29.2222 10.0065 29.2172 10.0931 29.1912 10.1745C29.1651 10.2559 29.1189 10.3293 29.0567 10.3879L16.7345 22.0967C16.2602 22.5483 15.6687 22.8579 15.0273 22.9903C15.5837 23.1062 16.1599 23.0855 16.7065 22.9299C17.2532 22.7742 17.7539 22.4884 18.1657 22.0967L30.9513 9.94787C30.6182 9.6206 30.1696 9.43762 29.7026 9.43848Z" fill="#C8EFFE"/>
<path d="M16.3003 25.6577H15.1895C15.0415 25.6577 14.895 25.6285 14.7582 25.5719C14.6215 25.5152 14.4972 25.4322 14.3926 25.3276C14.2879 25.2229 14.2049 25.0987 14.1483 24.9619C14.0916 24.8252 14.0625 24.6786 14.0625 24.5306V20.8963C14.0625 20.5974 14.1812 20.3107 14.3926 20.0994C14.6039 19.888 14.8906 19.7693 15.1895 19.7693H16.3003C16.5992 19.7693 16.8858 19.888 17.0972 20.0994C17.3085 20.3107 17.4273 20.5974 17.4273 20.8963V24.5306C17.4273 24.8295 17.3085 25.1162 17.0972 25.3276C16.8858 25.5389 16.5992 25.6577 16.3003 25.6577Z" fill="#99E6FC"/>
<path d="M17.4285 20.8963V24.5306C17.4285 24.8294 17.3099 25.116 17.0987 25.3273C16.8875 25.5386 16.601 25.6574 16.3022 25.6576H15.4943C15.6491 25.5552 15.776 25.4159 15.8638 25.2523C15.9516 25.0887 15.9975 24.9059 15.9973 24.7202V20.7689C15.9975 20.5621 15.9406 20.3593 15.8329 20.1828C15.7251 20.0062 15.5707 19.8629 15.3867 19.7686H16.3022C16.4502 19.7686 16.5968 19.7978 16.7335 19.8544C16.8703 19.9111 16.9945 19.9942 17.0991 20.099C17.2037 20.2037 17.2867 20.328 17.3432 20.4648C17.3997 20.6016 17.4287 20.7483 17.4285 20.8963Z" fill="#62DBFB"/>
<path d="M15.7432 15.6439C20.0413 15.6439 23.5255 12.1597 23.5255 7.86164C23.5255 3.5636 20.0413 0.0793457 15.7432 0.0793457C11.4452 0.0793457 7.96094 3.5636 7.96094 7.86164C7.96094 12.1597 11.4452 15.6439 15.7432 15.6439Z" fill="#4FC123"/>
<path d="M15.7433 0C15.5021 0 15.2636 0.0113203 15.0273 0.0332523C16.9495 0.211924 18.7358 1.10184 20.0361 2.52867C21.3365 3.95551 22.0573 5.81644 22.0573 7.74692C22.0573 9.67741 21.3365 11.5383 20.0361 12.9652C18.7358 14.392 16.9495 15.2819 15.0273 15.4606C15.2629 15.4825 15.5021 15.4938 15.7433 15.4938C17.7979 15.4938 19.7684 14.6777 21.2212 13.2248C22.674 11.772 23.4902 9.80154 23.4902 7.74692C23.4902 5.69231 22.674 3.72185 21.2212 2.26902C19.7684 0.816192 17.7979 0 15.7433 0Z" fill="#47A920"/>
<path d="M14.6248 7.56095L13.5169 6.45303C13.4497 6.3858 13.3699 6.33246 13.282 6.29607C13.1942 6.25968 13.1001 6.24096 13.005 6.24096C12.9099 6.24096 12.8158 6.25968 12.728 6.29607C12.6402 6.33246 12.5604 6.3858 12.4931 6.45303L11.5324 7.41379C11.4652 7.481 11.4118 7.5608 11.3754 7.64862C11.339 7.73645 11.3203 7.83058 11.3203 7.92565C11.3203 8.02072 11.339 8.11485 11.3754 8.20268C11.4118 8.29051 11.4652 8.37031 11.5324 8.43752L13.9937 10.8988C14.115 11.0202 14.259 11.1164 14.4175 11.182C14.5759 11.2477 14.7458 11.2815 14.9173 11.2815C15.0889 11.2815 15.2587 11.2477 15.4172 11.182C15.5757 11.1164 15.7197 11.0202 15.8409 10.8988L20.6518 6.08797C20.7191 6.02076 20.7724 5.94096 20.8088 5.85314C20.8452 5.76531 20.8639 5.67117 20.8639 5.57611C20.8639 5.48104 20.8452 5.3869 20.8088 5.29908C20.7724 5.21125 20.7191 5.13145 20.6518 5.06424L19.7618 4.17423C19.6946 4.107 19.6148 4.05366 19.527 4.01727C19.4391 3.98089 19.345 3.96216 19.2499 3.96216C19.1549 3.96216 19.0607 3.98089 18.9729 4.01727C18.8851 4.05366 18.8053 4.107 18.7381 4.17423L15.3492 7.56307C15.3015 7.61079 15.2449 7.64865 15.1826 7.67448C15.1202 7.70031 15.0534 7.7136 14.986 7.7136C14.9185 7.7136 14.8517 7.70031 14.7893 7.67448C14.727 7.64865 14.6704 7.61079 14.6227 7.56307L14.6248 7.56095Z" fill="#D1F19E"/>
<path d="M20.6545 5.06132L19.7645 4.17131C19.6973 4.10407 19.6175 4.05074 19.5296 4.01435C19.4418 3.97796 19.3477 3.95923 19.2526 3.95923C19.1575 3.95923 19.0634 3.97796 18.9756 4.01435C18.8878 4.05074 18.808 4.10407 18.7408 4.17131L18.445 4.46703C18.5869 4.49431 18.7173 4.56357 18.8193 4.66584L19.2225 5.06061C19.2898 5.12782 19.3431 5.20762 19.3795 5.29545C19.4159 5.38327 19.4346 5.47741 19.4346 5.57247C19.4346 5.66754 19.4159 5.76168 19.3795 5.8495C19.3431 5.93733 19.2898 6.01712 19.2225 6.08433L15.0293 10.1396C14.8227 10.346 14.5527 10.4772 14.2627 10.5121C13.9727 10.547 13.6794 10.4836 13.4297 10.3321L13.9957 10.898C14.117 11.0194 14.2609 11.1156 14.4194 11.1812C14.5779 11.2469 14.7478 11.2807 14.9193 11.2807C15.0908 11.2807 15.2607 11.2469 15.4192 11.1812C15.5776 11.1156 15.7216 11.0194 15.8429 10.898L20.6538 6.08717C20.721 6.01996 20.7743 5.94016 20.8107 5.85233C20.8471 5.76451 20.8659 5.67037 20.8659 5.5753C20.8659 5.48024 20.8471 5.3861 20.8107 5.29827C20.7743 5.21045 20.721 5.13065 20.6538 5.06344L20.6545 5.06132Z" fill="#BBEC6C"/>
</svg>
