<svg width="15" height="14" viewBox="0 0 15 14" fill="none" xmlns="http://www.w3.org/2000/svg">
<g clip-path="url(#clip0_105_9737)">
<path d="M14.7894 6.99005C14.7881 6.51518 14.6418 6.05204 14.37 5.66264C14.0982 5.27325 13.7139 4.97621 13.2686 4.8113L13.2465 4.75822C12.6678 3.34272 11.5599 2.20869 10.1583 1.59713L9.96638 1.51313C9.80115 1.06917 9.5041 0.686349 9.11508 0.416038C8.72606 0.145728 8.26368 0.000854492 7.78996 0.000854492C7.31625 0.000854492 6.85386 0.145728 6.46484 0.416038C6.07582 0.686349 5.77877 1.06917 5.61355 1.51313L5.36971 1.6228C3.98053 2.25376 2.88716 3.39475 2.31596 4.80955C1.86991 4.97206 1.4844 5.26741 1.21139 5.65578C0.93838 6.04416 0.790988 6.50689 0.789081 6.98162C0.787174 7.45635 0.930844 7.92025 1.20073 8.3108C1.47061 8.70136 1.85373 8.99979 2.29846 9.16588L2.37313 9.34088C2.95842 10.6994 4.03332 11.788 5.3843 12.3905L5.61355 12.4932C5.77924 12.9365 6.0764 13.3187 6.46525 13.5885C6.85411 13.8583 7.3161 14.0028 7.78938 14.0028C8.26266 14.0028 8.72465 13.8583 9.1135 13.5885C9.50236 13.3187 9.79952 12.9365 9.96521 12.4932L10.1793 12.3981C11.5925 11.7662 12.7035 10.6081 13.2762 9.16997C13.72 9.00334 14.1025 8.70548 14.3729 8.31606C14.6432 7.92663 14.7885 7.4641 14.7894 6.99005ZM7.78938 1.16663C8.02012 1.16663 8.24569 1.23506 8.43754 1.36325C8.6294 1.49145 8.77894 1.67365 8.86724 1.88683C8.95554 2.10002 8.97865 2.33459 8.93363 2.5609C8.88861 2.78722 8.7775 2.9951 8.61434 3.15826C8.45118 3.32142 8.2433 3.43253 8.01698 3.47755C7.79067 3.52256 7.5561 3.49946 7.34292 3.41116C7.12973 3.32286 6.94753 3.17332 6.81933 2.98146C6.69114 2.78961 6.62271 2.56404 6.62271 2.3333C6.62271 2.02388 6.74563 1.72713 6.96442 1.50834C7.18321 1.28955 7.47996 1.16663 7.78938 1.16663ZM3.11571 5.82455L3.16355 5.84263L3.16938 5.82805C3.46169 5.8542 3.73191 5.99451 3.92146 6.21856C4.11101 6.44261 4.20462 6.73234 4.18199 7.02494C4.15937 7.31754 4.02232 7.58944 3.80058 7.78168C3.57883 7.97392 3.29025 8.07101 2.9974 8.05191C2.70454 8.03281 2.43102 7.89906 2.23612 7.67965C2.04122 7.46023 1.94065 7.17285 1.95622 6.87978C1.97179 6.58672 2.10223 6.3116 2.31928 6.11407C2.53633 5.91654 2.82248 5.81252 3.11571 5.82455ZM7.78938 12.8333C7.55863 12.8333 7.33307 12.7649 7.14121 12.6367C6.94936 12.5085 6.79982 12.3263 6.71152 12.1131C6.62322 11.8999 6.60011 11.6653 6.64513 11.439C6.69015 11.2127 6.80126 11.0048 6.96442 10.8417C7.12758 10.6785 7.33546 10.5674 7.56177 10.5224C7.78809 10.4774 8.02266 10.5005 8.23584 10.5888C8.44902 10.6771 8.63123 10.8266 8.75943 11.0185C8.88762 11.2103 8.95605 11.4359 8.95605 11.6666C8.95605 11.9761 8.83313 12.2728 8.61434 12.4916C8.39555 12.7104 8.0988 12.8333 7.78938 12.8333ZM10.0603 11.1498C9.94418 10.6341 9.65604 10.1734 9.24327 9.84319C8.83049 9.51304 8.31766 9.33317 7.78909 9.33317C7.26052 9.33317 6.74768 9.51304 6.33491 9.84319C5.92214 10.1734 5.634 10.6341 5.51788 11.1498C4.72139 10.7152 4.06703 10.0602 3.63313 9.2633C4.14717 9.14715 4.6066 8.86004 4.93628 8.4489C5.26597 8.03777 5.44642 7.52694 5.44811 6.99994C5.4498 6.47295 5.27265 5.96097 4.94561 5.54772C4.61857 5.13447 4.161 4.84441 3.64771 4.72497C4.08321 3.9393 4.7314 3.29233 5.51788 2.8583C5.63449 3.37338 5.92276 3.83351 6.33536 4.16315C6.74797 4.49279 7.26039 4.67235 7.7885 4.67235C8.31662 4.67235 8.82904 4.49279 9.24165 4.16315C9.65425 3.83351 9.94252 3.37338 10.0591 2.8583C10.845 3.29185 11.4936 3.93715 11.931 4.72088C11.4162 4.83848 10.9566 5.12763 10.6278 5.54087C10.2989 5.95412 10.1203 6.46689 10.1214 6.995C10.1224 7.52312 10.3029 8.0352 10.6334 8.44717C10.9638 8.85914 11.4245 9.14652 11.9398 9.26213C11.5045 10.0565 10.8528 10.7111 10.0603 11.1498ZM12.456 8.15672C12.2253 8.15672 11.9997 8.08829 11.8079 7.9601C11.616 7.8319 11.4665 7.64969 11.3782 7.43651C11.2899 7.22333 11.2668 6.98876 11.3118 6.76244C11.3568 6.53613 11.4679 6.32825 11.6311 6.16509C11.7943 6.00193 12.0021 5.89082 12.2284 5.8458C12.4548 5.80078 12.6893 5.82389 12.9025 5.91219C13.1157 6.00049 13.2979 6.15003 13.4261 6.34188C13.5543 6.53374 13.6227 6.7593 13.6227 6.99005C13.6227 7.29947 13.4998 7.59622 13.281 7.81501C13.0622 8.0338 12.7655 8.15672 12.456 8.15672Z" fill="#187BCD"/>
</g>
<defs>
<clipPath id="clip0_105_9737">
<rect width="14" height="14" fill="white" transform="translate(0.789062)"/>
</clipPath>
</defs>
</svg>
