<svg width="17" height="17" viewBox="0 0 17 17" fill="none" xmlns="http://www.w3.org/2000/svg">
<path d="M10.0017 7.08327H13.4583V5.80827H10.8942L9.4775 3.44952C9.265 3.09535 8.8825 2.85452 8.44333 2.85452C8.31583 2.85452 8.2025 2.87577 8.08917 2.91119L4.25 4.10827V7.7916H5.525V5.19202L7.01958 4.72452L4.25 15.5833H5.525L7.55792 9.83869L9.20833 12.0416V15.5833H10.4833V11.0429L8.71958 7.82702L9.23667 5.7941M9.91667 2.6916C10.625 2.6916 11.1917 2.12494 11.1917 1.4166C11.1917 0.708268 10.625 0.141602 9.91667 0.141602C9.20833 0.141602 8.64167 0.708268 8.64167 1.4166C8.64167 2.12494 9.20833 2.6916 9.91667 2.6916Z" fill="#187BCD"/>
</svg>
