<svg width="25" height="14" viewBox="0 0 25 14" fill="none" xmlns="http://www.w3.org/2000/svg">
<path d="M21.476 1.02344H3.5595C2.14593 1.02344 1 2.09319 1 3.4128V10.5809C1 11.9005 2.14593 12.9703 3.5595 12.9703H21.476C22.8896 12.9703 24.0355 11.9005 24.0355 10.5809V3.4128C24.0355 2.09319 22.8896 1.02344 21.476 1.02344Z" fill="white"/>
<path d="M21.4752 1.42188H3.5587C2.38072 1.42188 1.42578 2.31334 1.42578 3.41301V10.5811C1.42578 11.6808 2.38072 12.5722 3.5587 12.5722H21.4752C22.6532 12.5722 23.6081 11.6808 23.6081 10.5811V3.41301C23.6081 2.31334 22.6532 1.42188 21.4752 1.42188Z" stroke="#187BCD"/>
<path d="M4.03363 9.96973L5.83963 7.47973V8.18773L4.11163 5.76973H5.21563L6.40963 7.45573L5.94763 7.46173L7.12363 5.76973H8.17963L6.46363 8.14573V7.44973L8.28163 9.96973H7.15963L5.92363 8.18773H6.36763L5.14963 9.96973H4.03363ZM9.65919 9.96973V8.25373L9.88119 8.84173L8.03319 5.76973H9.06519L10.4812 8.12773H9.88719L11.3092 5.76973H12.2632L10.4152 8.84173L10.6312 8.25373V9.96973H9.65919ZM12.2847 8.65573V7.90573H13.9827V8.65573H12.2847ZM15.0402 9.96973V6.12973L15.4602 6.54973H14.2002V5.76973H16.0122V9.96973H15.0402ZM16.7058 9.96973V9.33973L18.3258 7.80973C18.4538 7.69373 18.5478 7.58973 18.6078 7.49773C18.6678 7.40573 18.7078 7.32173 18.7278 7.24573C18.7518 7.16973 18.7638 7.09973 18.7638 7.03573C18.7638 6.86773 18.7058 6.73973 18.5898 6.65173C18.4778 6.55973 18.3118 6.51373 18.0918 6.51373C17.9158 6.51373 17.7518 6.54773 17.5998 6.61573C17.4518 6.68373 17.3258 6.78973 17.2218 6.93373L16.5138 6.47773C16.6738 6.23773 16.8978 6.04773 17.1858 5.90773C17.4738 5.76773 17.8058 5.69773 18.1818 5.69773C18.4938 5.69773 18.7658 5.74973 18.9978 5.85373C19.2338 5.95373 19.4158 6.09573 19.5438 6.27973C19.6758 6.46373 19.7418 6.68373 19.7418 6.93973C19.7418 7.07573 19.7238 7.21173 19.6878 7.34773C19.6558 7.47973 19.5878 7.61973 19.4838 7.76773C19.3838 7.91573 19.2358 8.08173 19.0398 8.26573L17.6958 9.53173L17.5098 9.17773H19.8798V9.96973H16.7058Z" fill="#187BCD"/>
<path d="M3.57979 1L21.9732 1.27398L23.3647 2.7753V4.20892H1.51172L1.81886 2.61601L3.57979 1Z" fill="#187BCD"/>
</svg>
