<svg width="16" height="17" viewBox="0 0 16 17" fill="none" xmlns="http://www.w3.org/2000/svg">
<path d="M2.66667 9.29557H4.66667V10.6289H2.66667V9.29557ZM6 10.6289H8V9.29557H6V10.6289ZM2.66667 13.2956H4.66667V11.9622H2.66667V13.2956ZM6 13.2956H8V11.9622H6V13.2956ZM2.66667 5.29557H4.66667V3.96224H2.66667V5.29557ZM6 5.29557H8V3.96224H6V5.29557ZM2.66667 7.96224H4.66667V6.62891H2.66667V7.96224ZM6 7.96224H8V6.62891H6V7.96224ZM16 5.96224V16.6289H0V2.62891C0 2.09847 0.210714 1.58977 0.585786 1.21469C0.960859 0.83962 1.46957 0.628906 2 0.628906L8.66667 0.628906C9.1971 0.628906 9.70581 0.83962 10.0809 1.21469C10.456 1.58977 10.6667 2.09847 10.6667 2.62891V3.96224H14C14.5304 3.96224 15.0391 4.17295 15.4142 4.54803C15.7893 4.9231 16 5.43181 16 5.96224ZM9.33333 2.62891C9.33333 2.4521 9.2631 2.28253 9.13807 2.1575C9.01305 2.03248 8.84348 1.96224 8.66667 1.96224H2C1.82319 1.96224 1.65362 2.03248 1.5286 2.1575C1.40357 2.28253 1.33333 2.4521 1.33333 2.62891V15.2956H9.33333V2.62891ZM14.6667 5.96224C14.6667 5.78543 14.5964 5.61586 14.4714 5.49084C14.3464 5.36581 14.1768 5.29557 14 5.29557H10.6667V15.2956H14.6667V5.96224ZM12 10.6289H13.3333V9.29557H12V10.6289ZM12 13.2956H13.3333V11.9622H12V13.2956ZM12 7.96224H13.3333V6.62891H12V7.96224Z" fill="white"/>
</svg>
