<svg width="62" height="62" viewBox="0 0 62 62" fill="none" xmlns="http://www.w3.org/2000/svg">
<g filter="url(#filter0_d_122_5069)">
<rect x="17" y="17" width="28" height="28" rx="4" fill="white"/>
</g>
<path fill-rule="evenodd" clip-rule="evenodd" d="M25.2287 30.7187L27.445 32.9349C27.5279 33.0122 27.5944 33.1053 27.6405 33.2088C27.6866 33.3123 27.7114 33.4241 27.7134 33.5374C27.7154 33.6507 27.6946 33.7632 27.6521 33.8682C27.6097 33.9733 27.5465 34.0687 27.4664 34.1489C27.3863 34.229 27.2909 34.2922 27.1858 34.3346C27.0807 34.377 26.9682 34.3979 26.8549 34.3959C26.7416 34.3939 26.6299 34.3691 26.5264 34.323C26.4229 34.2768 26.3297 34.2103 26.2525 34.1274L22.5962 30.4712L22 29.8749L22.5962 29.2787L26.2525 25.6224C26.4124 25.4734 26.624 25.3923 26.8426 25.3961C27.0612 25.4 27.2697 25.4885 27.4243 25.6431C27.5789 25.7977 27.6675 26.0063 27.6713 26.2249C27.6752 26.4435 27.594 26.655 27.445 26.8149L25.2287 29.0312H36.3438C37.3134 29.0312 38.2434 29.4164 38.9291 30.1021C39.6148 30.7878 40 31.7178 40 32.6874C40 33.6571 39.6148 34.5871 38.9291 35.2728C38.2434 35.9585 37.3134 36.3437 36.3438 36.3437H34.0938C33.87 36.3437 33.6554 36.2548 33.4971 36.0966C33.3389 35.9383 33.25 35.7237 33.25 35.4999C33.25 35.2762 33.3389 35.0616 33.4971 34.9033C33.6554 34.7451 33.87 34.6562 34.0938 34.6562H36.3438C36.8659 34.6562 37.3667 34.4488 37.7359 34.0796C38.1051 33.7104 38.3125 33.2096 38.3125 32.6874C38.3125 32.1653 38.1051 31.6645 37.7359 31.2953C37.3667 30.9261 36.8659 30.7187 36.3438 30.7187H25.2287Z" fill="#2464E8"/>
<defs>
<filter id="filter0_d_122_5069" x="0" y="0" width="62" height="62" filterUnits="userSpaceOnUse" color-interpolation-filters="sRGB">
<feFlood flood-opacity="0" result="BackgroundImageFix"/>
<feColorMatrix in="SourceAlpha" type="matrix" values="0 0 0 0 0 0 0 0 0 0 0 0 0 0 0 0 0 0 127 0" result="hardAlpha"/>
<feMorphology radius="1" operator="dilate" in="SourceAlpha" result="effect1_dropShadow_122_5069"/>
<feOffset/>
<feGaussianBlur stdDeviation="8"/>
<feComposite in2="hardAlpha" operator="out"/>
<feColorMatrix type="matrix" values="0 0 0 0 0 0 0 0 0 0 0 0 0 0 0 0 0 0 0.25 0"/>
<feBlend mode="normal" in2="BackgroundImageFix" result="effect1_dropShadow_122_5069"/>
<feBlend mode="normal" in="SourceGraphic" in2="effect1_dropShadow_122_5069" result="shape"/>
</filter>
</defs>
</svg>
