<svg width="20" height="20" viewBox="0 0 20 20" fill="none" xmlns="http://www.w3.org/2000/svg" style="color:#ffffff;">
<path d="M7.56329 17.5005C7.56415 17.5007 7.56505 17.5001 7.56508 17.4992C7.56865 17.3739 7.53154 17.2508 7.45928 17.1484C7.38666 17.0454 7.2825 16.9689 7.16253 16.9304C7.06539 16.8874 6.95771 16.8741 6.85301 16.8921C6.74832 16.9101 6.65128 16.9586 6.57408 17.0316L6.52466 17.0822C6.29229 17.3145 6.01643 17.4987 5.71283 17.6245C5.40922 17.7502 5.08382 17.8149 4.75521 17.8149C4.42659 17.8149 4.10119 17.7502 3.79759 17.6245C3.49399 17.4987 3.21813 17.3145 2.98576 17.0822C2.75339 16.8499 2.56907 16.5741 2.44331 16.2706C2.31756 15.9671 2.25283 15.6418 2.25283 15.3133C2.25283 14.9847 2.31756 14.6594 2.44331 14.3559C2.56907 14.0524 2.75339 13.7766 2.98576 13.5443L3.03048 13.5008C3.10441 13.4232 3.15419 13.3258 3.17376 13.2204C3.19332 13.115 3.18183 13.0062 3.14069 12.9072C3.09954 12.8083 3.03051 12.7234 2.94199 12.6629C2.85348 12.6024 2.74929 12.569 2.64211 12.5666L2.50088 12.5666C1.83761 12.5666 1.2015 12.3032 0.732492 11.8343C0.263485 11.3655 -2.98727e-09 10.7296 -2.80266e-09 10.0665C-2.61805e-09 9.40339 0.263485 8.76747 0.732492 8.2986C1.2015 7.82973 1.83761 7.56633 2.50088 7.56633C2.62678 7.57012 2.75051 7.53294 2.85345 7.46037C2.95639 7.38781 3.03297 7.28378 3.07167 7.16395C3.11452 7.06673 3.12765 6.95901 3.10944 6.85434C3.09122 6.74967 3.04246 6.65272 2.96928 6.57568L2.91985 6.52627C2.67955 6.29603 2.48762 6.02019 2.35528 5.71488C2.22295 5.40956 2.15288 5.08093 2.14918 4.7482C2.14548 4.41548 2.20822 4.08537 2.33372 3.77719C2.45923 3.46901 2.64498 3.18896 2.8801 2.95344C3.11522 2.71793 3.39497 2.53167 3.70299 2.40559C4.01101 2.2795 4.3411 2.21612 4.67392 2.21916C5.00675 2.2222 5.33562 2.29159 5.64129 2.42328C5.94695 2.55496 6.22326 2.74629 6.45404 2.98606L6.49759 3.02841C6.57506 3.10404 6.67339 3.15476 6.77994 3.17405C6.88648 3.19334 6.99636 3.18031 7.09545 3.13665C7.20105 3.09062 7.31769 3.05581 7.3873 2.96401C7.40459 2.9412 7.4201 2.91697 7.43364 2.89154C7.47464 2.81448 7.4963 2.72861 7.49676 2.64133L7.49676 2.50015C7.49676 1.83707 7.76025 1.20114 8.22925 0.732276C8.69826 0.263408 9.33437 -2.61551e-09 9.99765 -2.80137e-09C10.6609 -2.98722e-09 11.297 0.263408 11.766 0.732276C12.235 1.20114 12.4985 1.83707 12.4985 2.50015L12.4985 2.57192C12.5006 2.67849 12.5335 2.78218 12.593 2.87058C12.6526 2.95897 12.7364 3.02831 12.8345 3.07028C12.9325 3.11226 13.0405 3.12508 13.1456 3.10722C13.2507 3.08936 13.3485 3.04157 13.4271 2.96959L13.4765 2.919C13.7081 2.68339 13.9841 2.49598 14.2886 2.36758C14.5931 2.23919 14.92 2.17236 15.2504 2.17095C15.5808 2.16955 15.9083 2.23359 16.2138 2.35938C16.5194 2.48517 16.797 2.67022 17.0306 2.90385C17.2642 3.13747 17.4492 3.41505 17.5749 3.72055C17.7007 4.02604 17.7646 4.35341 17.7631 4.68375C17.7616 5.01409 17.6946 5.34086 17.5661 5.64519C17.4376 5.94952 17.25 6.22538 17.0142 6.45685L16.9707 6.49921C16.8951 6.57665 16.8443 6.67496 16.825 6.78147C16.8057 6.88799 16.8188 6.99784 16.8624 7.09689C16.9085 7.20246 16.9432 7.31911 17.035 7.38872C17.0578 7.40604 17.0821 7.42157 17.1075 7.43512C17.1846 7.47611 17.2706 7.49773 17.3579 7.49809L17.4991 7.49809C18.1624 7.49809 18.7985 7.7615 19.2675 8.23036C19.7365 8.69923 20 9.33515 20 9.99823C20 10.6613 19.7365 11.2972 19.2675 11.7661C18.7985 12.235 18.1624 12.4984 17.4991 12.4984L17.4273 12.4984C17.3205 12.5 17.2164 12.5325 17.1277 12.592C17.0389 12.6515 16.9693 12.7354 16.9273 12.8335C16.8852 12.9317 16.8725 13.04 16.8906 13.1452C16.9088 13.2505 16.957 13.3482 17.0295 13.4267L17.079 13.4761C17.5414 13.9465 17.7993 14.5805 17.7965 15.24C17.7937 15.8996 17.5304 16.5313 17.064 16.9978C16.5975 17.4642 15.9657 17.7276 15.3059 17.7306C14.6462 17.7337 14.012 17.4761 13.5413 17.0139L13.4977 16.9692C13.4201 16.8953 13.3226 16.8456 13.2172 16.826C13.1118 16.8064 13.003 16.8179 12.904 16.8591C12.805 16.9002 12.7201 16.9692 12.6596 17.0577C12.5991 17.1462 12.5656 17.2503 12.5633 17.3575L12.5633 17.4999C12.5633 18.1629 12.2998 18.7989 11.8308 19.2677C11.3618 19.7366 10.7257 20 10.0624 20C9.3991 20 8.76299 19.7366 8.29398 19.2677C7.82542 18.7993 7.56199 18.1641 7.56149 17.5017C7.56149 17.5008 7.5624 17.5002 7.56329 17.5005ZM7.78628 15.3844C7.78628 15.3838 7.78683 15.3835 7.78734 15.3837C8.20535 15.5388 8.56687 15.8163 8.82471 16.18C9.08277 16.5439 9.22495 16.9773 9.23267 17.4234L9.23267 17.4987C9.23267 17.7198 9.32052 17.9318 9.47689 18.0881C9.63326 18.2444 9.84535 18.3323 10.0665 18.3323C10.2876 18.3323 10.4997 18.2444 10.6561 18.0881C10.8125 17.9318 10.9003 17.7198 10.9003 17.4987L10.9003 17.354C10.9031 16.9181 11.0342 16.4927 11.2774 16.1308C11.5205 15.769 11.8648 15.4868 12.2674 15.3194C12.67 15.152 13.113 15.1068 13.5411 15.1895C13.9692 15.2722 14.3634 15.4791 14.6746 15.7845L14.7252 15.8339C14.842 15.9501 14.9905 16.0293 15.1522 16.0613C15.3138 16.0934 15.4814 16.077 15.6337 16.0141C15.786 15.9512 15.9164 15.8447 16.0083 15.708C16.1003 15.5712 16.1497 15.4104 16.1504 15.2456C16.1495 15.0249 16.0615 14.8135 15.9056 14.6573L15.8491 14.602C15.5415 14.2876 15.3348 13.8884 15.2556 13.4558C15.1763 13.0231 15.2281 12.5767 15.4043 12.1737C15.5746 11.7783 15.8568 11.4413 16.2163 11.2042C16.5758 10.9672 16.9967 10.8404 17.4273 10.8395L17.5026 10.8395C17.7184 10.8314 17.9226 10.74 18.0723 10.5845C18.2221 10.4291 18.3057 10.2217 18.3057 10.0059C18.3057 9.79007 18.2221 9.58266 18.0723 9.42722C17.9226 9.27178 17.7184 9.18041 17.5026 9.1723L17.3567 9.1723C16.926 9.17037 16.5052 9.04261 16.1462 8.80472C15.7872 8.56684 15.5056 8.22922 15.336 7.8334C15.2754 7.69363 15.2457 7.54181 15.2107 7.39356C15.1337 7.06794 15.1313 6.72808 15.205 6.39968C15.2955 5.99652 15.497 5.62672 15.7867 5.33208L15.8374 5.28149C15.9242 5.20654 15.9946 5.1145 16.0442 5.01111C16.0939 4.90773 16.1217 4.79522 16.1259 4.68062C16.13 4.56602 16.1106 4.45179 16.0686 4.34505C16.0266 4.23832 15.9631 4.14138 15.882 4.0603C15.8009 3.97921 15.7039 3.91571 15.5972 3.87377C15.4904 3.83183 15.3761 3.81234 15.2615 3.81653C15.1469 3.82072 15.0343 3.8485 14.9309 3.89812C14.8275 3.94774 14.7354 4.01815 14.6605 4.10495L14.604 4.16024C14.2918 4.46334 13.8974 4.66802 13.4699 4.74884C13.0423 4.82966 12.6004 4.78305 12.1991 4.61481C11.7978 4.44656 11.4548 4.16411 11.2128 3.80257C10.9708 3.44103 10.8405 3.01634 10.8379 2.58133L10.8379 2.50015C10.8379 2.27907 10.7501 2.06704 10.5937 1.91072C10.4374 1.75439 10.2253 1.66657 10.0041 1.66657C9.78298 1.66657 9.57089 1.75439 9.41452 1.91072C9.25814 2.06704 9.17029 2.27907 9.17029 2.50015L9.17029 2.64604C9.16797 3.07715 9.03947 3.49816 8.80064 3.85713C8.56181 4.21611 8.2231 4.49734 7.82629 4.66616C7.68606 4.72571 7.53467 4.75643 7.38641 4.7915C7.06067 4.86855 6.72065 4.87097 6.3921 4.79729C5.9888 4.70684 5.61888 4.50532 5.32423 4.21554L5.27363 4.16495C5.19865 4.07816 5.10658 4.00775 5.00317 3.95812C4.89976 3.9085 4.78722 3.88072 4.67258 3.87653C4.55795 3.87234 4.44368 3.89183 4.33692 3.93377C4.23015 3.97571 4.13319 4.03921 4.05208 4.1203C3.97096 4.20139 3.90745 4.29833 3.86549 4.40506C3.82354 4.51179 3.80405 4.62602 3.80824 4.74062C3.81243 4.85522 3.84021 4.96773 3.88985 5.07111C3.93949 5.1745 4.00992 5.26654 4.09674 5.34149L4.15323 5.39796C4.45776 5.70559 4.66415 6.09663 4.74627 6.52157C4.8284 6.94652 4.78256 7.38627 4.61457 7.78516C4.46019 8.20471 4.18239 8.56772 3.81773 8.82643C3.45306 9.08515 3.0186 9.22747 2.5715 9.23466L2.49618 9.23466C2.27503 9.23466 2.06295 9.32248 1.90657 9.47881C1.7502 9.63514 1.66235 9.84716 1.66235 10.0682C1.66235 10.2893 1.7502 10.5013 1.90657 10.6577C2.06295 10.814 2.27503 10.9018 2.49618 10.9018L2.64093 10.9018C3.07694 10.9046 3.50247 11.0357 3.86441 11.2788C4.22635 11.5218 4.50867 11.866 4.67613 12.2685C4.84359 12.671 4.88877 13.1138 4.80603 13.5418C4.72329 13.9698 4.5163 14.3639 4.2109 14.675L4.16029 14.7256C4.02255 14.885 3.95027 15.0907 3.95797 15.3012C3.96567 15.5118 4.05278 15.7116 4.20181 15.8606C4.35083 16.0096 4.55072 16.0967 4.76133 16.1044C4.97195 16.1121 5.17767 16.0398 5.33718 15.9021L5.39367 15.8456C5.80933 15.4402 6.36645 15.2124 6.94716 15.2103C7.23567 15.2092 7.52117 15.2688 7.78516 15.3851C7.78569 15.3854 7.78628 15.385 7.78628 15.3844ZM6.6647 10.0006C6.6647 9.34136 6.86025 8.69693 7.2266 8.1488C7.59296 7.60067 8.11368 7.17345 8.72291 6.92117C9.33214 6.66889 10.0025 6.60289 10.6493 6.7315C11.296 6.86011 11.8901 7.17756 12.3564 7.6437C12.8227 8.10985 13.1402 8.70376 13.2689 9.35033C13.3975 9.99689 13.3315 10.6671 13.0791 11.2761C12.8268 11.8852 12.3995 12.4057 11.8512 12.772C11.3029 13.1382 10.6582 13.3337 9.99882 13.3337C9.11466 13.3334 8.26679 12.9821 7.64159 12.3571C7.01639 11.7321 6.66502 10.8845 6.6647 10.0006ZM8.33235 10.0006C8.33235 10.3304 8.43019 10.6527 8.61348 10.9269C8.79678 11.2011 9.0573 11.4148 9.36209 11.541C9.66688 11.6671 10.0023 11.7 10.3258 11.6356C10.6493 11.5712 10.9464 11.4123 11.1796 11.179C11.4128 10.9458 11.5715 10.6486 11.6357 10.3251C11.7 10.0016 11.6668 9.66639 11.5404 9.36178C11.414 9.05717 11.2 8.79687 10.9256 8.61383C10.6512 8.43078 10.3287 8.3332 9.99882 8.33343C9.55674 8.33374 9.13287 8.50953 8.82038 8.82215C8.50789 9.13476 8.33235 9.55863 8.33235 10.0006Z" fill="#FDFDFD" fill-opacity="0.5"/>
</svg>
