<svg width="20" height="20" viewBox="0 0 20 20" fill="none" xmlns="http://www.w3.org/2000/svg">
<path fill-rule="evenodd" clip-rule="evenodd" d="M5.675 1.04185H5.78083C6.07333 1.04185 6.26167 1.04185 6.44583 1.05852C7.19683 1.12875 7.91212 1.41209 8.5075 1.87518H13.7567C14.0975 1.87518 14.3292 1.87518 14.5325 1.90185C15.2426 1.99558 15.899 2.33041 16.3917 2.8503C16.8845 3.37018 17.1836 4.04356 17.2392 4.75768C17.4733 4.86359 17.6898 5.00498 17.8808 5.17685C17.9642 5.25018 18.0417 5.32852 18.115 5.41018C18.5558 5.90018 18.7433 6.49602 18.8317 7.19685C18.9167 7.87352 18.9167 8.72852 18.9167 9.78935V11.7143C18.9167 13.2452 18.9167 14.4585 18.7892 15.4077C18.6575 16.3843 18.3808 17.1752 17.7575 17.7993C17.1333 18.4227 16.3425 18.6993 15.3658 18.831C14.4158 18.9585 13.2033 18.9585 11.6717 18.9585H8.245C6.71333 18.9585 5.5 18.9585 4.55083 18.831C3.57417 18.6993 2.78333 18.4227 2.15917 17.7993C1.53583 17.1752 1.25917 16.3843 1.1275 15.4077C1 14.4577 1 13.2452 1 11.7135V5.71685C1 5.05268 1 4.63102 1.06833 4.26685C1.2157 3.48403 1.59582 2.76389 2.159 2.20056C2.72218 1.63723 3.44222 1.25692 4.225 1.10935C4.59 1.04102 5.01167 1.04102 5.675 1.04102M15.9142 4.43935C15.8074 4.09811 15.6054 3.79449 15.3318 3.56431C15.0582 3.33413 14.7245 3.18697 14.37 3.14018C14.2583 3.12602 14.115 3.12435 13.7083 3.12435H9.80083C10.3367 3.65768 10.58 3.87935 10.8558 4.03268C11.0375 4.13352 11.23 4.21352 11.43 4.27102C11.7742 4.36852 12.1517 4.37435 13.1483 4.37435H13.5025C14.4708 4.37435 15.2683 4.37435 15.9142 4.43935ZM5.75 2.29185C4.98583 2.29185 4.69083 2.29435 4.45583 2.33852C3.92069 2.43968 3.42848 2.69983 3.04345 3.08501C2.65841 3.47019 2.39845 3.9625 2.2975 4.49768C2.2525 4.73268 2.25 5.02768 2.25 5.79185V11.6668C2.25 13.256 2.25167 14.3852 2.36667 15.2418C2.47917 16.0793 2.69083 16.5627 3.04333 16.9152C3.39583 17.2677 3.87917 17.4793 4.7175 17.5918C5.57417 17.7068 6.7025 17.7085 8.29167 17.7085H11.625C13.2142 17.7085 14.3433 17.7068 15.2 17.5918C16.0375 17.4793 16.5208 17.2677 16.8733 16.9152C17.2258 16.5627 17.4375 16.0793 17.55 15.241C17.665 14.3852 17.6667 13.256 17.6667 11.6668V9.83185C17.6667 8.71852 17.6658 7.94268 17.5917 7.35268C17.5192 6.77852 17.3867 6.46935 17.1858 6.24602C17.1417 6.1969 17.0949 6.15017 17.0458 6.10602C16.8225 5.90518 16.5125 5.77268 15.9392 5.70018C15.35 5.62602 14.5733 5.62518 13.46 5.62518H13.0567C12.1833 5.62518 11.62 5.62518 11.0875 5.47352C10.7958 5.39018 10.5133 5.27352 10.2475 5.12602C9.76417 4.85602 9.36583 4.45852 8.7475 3.84018L8.68333 3.77518L8.225 3.31685C8.09115 3.17696 7.9513 3.04294 7.80583 2.91518C7.38658 2.56754 6.87226 2.35437 6.33 2.30352C6.13693 2.29124 5.94341 2.28735 5.75 2.29185ZM10.1667 8.33352C10.1667 8.16776 10.2325 8.00878 10.3497 7.89157C10.4669 7.77436 10.6259 7.70852 10.7917 7.70852H14.9583C15.1241 7.70852 15.2831 7.77436 15.4003 7.89157C15.5175 8.00878 15.5833 8.16776 15.5833 8.33352C15.5833 8.49928 15.5175 8.65825 15.4003 8.77546C15.2831 8.89267 15.1241 8.95852 14.9583 8.95852H10.7917C10.6259 8.95852 10.4669 8.89267 10.3497 8.77546C10.2325 8.65825 10.1667 8.49928 10.1667 8.33352Z" fill="#187BCD"/>
</svg>
