<svg width="16" height="20" viewBox="0 0 16 20" fill="none" xmlns="http://www.w3.org/2000/svg">
<path d="M8.35222 0.633972C9.22073 0.633972 10.0697 0.893167 10.7919 1.37878C11.514 1.86439 12.0769 2.55461 12.4092 3.36216C12.7416 4.1697 12.8286 5.0583 12.6591 5.91559C12.4897 6.77287 12.0715 7.56034 11.4573 8.17841C10.8432 8.79648 10.0607 9.21739 9.20891 9.38791C8.35709 9.55843 7.47415 9.47092 6.67175 9.13642C5.86935 8.80192 5.18352 8.23547 4.701 7.5087C4.21848 6.78193 3.96094 5.92748 3.96094 5.0534C3.9623 3.88172 4.4254 2.75842 5.24862 1.92991C6.07185 1.10141 7.188 0.635348 8.35222 0.633972ZM8.35222 7.91303C8.9142 7.91303 9.46355 7.74532 9.93082 7.4311C10.3981 7.11688 10.7623 6.67026 10.9773 6.14773C11.1924 5.6252 11.2487 5.05023 11.139 4.49551C11.0294 3.9408 10.7588 3.43126 10.3614 3.03134C9.96402 2.63141 9.45773 2.35906 8.90655 2.24872C8.35537 2.13838 7.78405 2.19501 7.26485 2.41145C6.74565 2.62789 6.30188 2.99441 5.98967 3.46468C5.67745 3.93494 5.5108 4.48782 5.5108 5.0534C5.51162 5.81157 5.81125 6.53845 6.34394 7.07455C6.87663 7.61066 7.59888 7.9122 8.35222 7.91303Z" fill="white" fill-opacity="0.5"/>
<path d="M8.40941 10.0068C12.2409 10.0068 15.3159 11.6647 15.8686 13.8956C15.9858 14.3687 16.0161 14.8638 15.9942 15.3507C15.9778 15.7133 15.9099 16.0729 15.7915 16.4185C15.5936 16.9956 15.2607 17.5164 14.8207 17.9368C13.7254 18.8342 11.7468 19.2345 8.40527 19.2345C5.06377 19.2345 3.08511 18.8342 1.98987 17.9368C1.54989 17.5164 1.21691 16.9956 1.01909 16.4185C0.898919 16.0678 0.830765 15.7027 0.815702 15.3346C0.796208 14.8583 0.826764 14.3745 0.940317 13.9115C1.48926 11.6732 4.57273 10.0068 8.40941 10.0068ZM8.40941 17.6758C11.2498 17.6758 13.0786 17.3565 13.8463 16.7274C14.2426 16.4024 14.3596 15.9984 14.3937 15.3727C14.4209 14.8728 14.4023 14.357 14.191 13.9031C14.107 13.7226 14.0025 13.5517 13.8791 13.3938C13.6005 13.0377 13.2351 12.7603 12.8182 12.5888C11.4564 11.882 9.94021 11.5302 8.40837 11.5655C6.87653 11.5302 5.36035 11.882 3.99849 12.5888C3.58213 12.7607 3.21711 13.0382 2.93899 13.3943C2.81565 13.5522 2.71127 13.7232 2.62738 13.9036C2.4165 14.3572 2.39793 14.8726 2.42515 15.3721C2.4592 15.9971 2.57616 16.4 2.97249 16.7274C3.74018 17.3565 5.56902 17.6758 8.40941 17.6758Z" fill="white" fill-opacity="0.5"/>
</svg>
