<svg width="16" height="19" viewBox="0 0 16 19" fill="none" xmlns="http://www.w3.org/2000/svg">
<path d="M8.35222 0.000244139C9.22073 0.000244139 10.0697 0.259439 10.7919 0.745052C11.514 1.23067 12.0769 1.92089 12.4092 2.72843C12.7416 3.53598 12.8286 4.42458 12.6591 5.28186C12.4897 6.13915 12.0715 6.92661 11.4573 7.54468C10.8432 8.16275 10.0607 8.58366 9.20891 8.75418C8.35709 8.92471 7.47415 8.83719 6.67175 8.50269C5.86935 8.1682 5.18352 7.60175 4.701 6.87498C4.21848 6.1482 3.96094 5.29375 3.96094 4.41967C3.9623 3.24799 4.4254 2.12469 5.24862 1.29618C6.07185 0.467679 7.188 0.00162016 8.35222 0.000244139ZM8.35222 7.2793C8.9142 7.2793 9.46355 7.11159 9.93082 6.79737C10.3981 6.48315 10.7623 6.03653 10.9773 5.51401C11.1924 4.99148 11.2487 4.4165 11.139 3.86179C11.0294 3.30707 10.7588 2.79754 10.3614 2.39761C9.96402 1.99768 9.45773 1.72533 8.90655 1.61499C8.35537 1.50465 7.78405 1.56128 7.26485 1.77772C6.74565 1.99416 6.30188 2.36068 5.98967 2.83095C5.67745 3.30121 5.5108 3.85409 5.5108 4.41967C5.51162 5.17784 5.81125 5.90472 6.34394 6.44082C6.87663 6.97693 7.59888 7.27848 8.35222 7.2793Z" fill="white"/>
<path d="M8.40941 9.37305C12.2409 9.37305 15.3159 11.0309 15.8686 13.2619C15.9858 13.735 16.0161 14.2301 15.9942 14.7169C15.9778 15.0796 15.9099 15.4392 15.7915 15.7847C15.5936 16.3619 15.2607 16.8827 14.8207 17.3031C13.7254 18.2005 11.7468 18.6008 8.40527 18.6008C5.06377 18.6008 3.08511 18.2005 1.98987 17.3031C1.54989 16.8827 1.21691 16.3619 1.01909 15.7847C0.898919 15.4341 0.830765 15.0689 0.815702 14.7009C0.796208 14.2246 0.826764 13.7407 0.940317 13.2778C1.48926 11.0395 4.57273 9.37305 8.40941 9.37305ZM8.40941 17.0421C11.2498 17.0421 13.0786 16.7228 13.8463 16.0937C14.2426 15.7686 14.3596 15.3646 14.3937 14.739C14.4209 14.2391 14.4023 13.7232 14.191 13.2693C14.107 13.0889 14.0025 12.9179 13.8791 12.7601C13.6005 12.404 13.2351 12.1266 12.8182 11.955C11.4564 11.2483 9.94021 10.8965 8.40837 10.9318C6.87653 10.8965 5.36035 11.2483 3.99849 11.955C3.58213 12.127 3.21711 12.4045 2.93899 12.7606C2.81565 12.9185 2.71127 13.0894 2.62738 13.2699C2.4165 13.7235 2.39793 14.2389 2.42515 14.7384C2.4592 15.3634 2.57616 15.7663 2.97249 16.0937C3.74018 16.7228 5.56902 17.0421 8.40941 17.0421Z" fill="white"/>
</svg>
